solid OpenSCAD_Model
  facet normal 0 1 0
    outer loop
      vertex 3.82998 5 3.63998
      vertex 5.38998 5 2.82815
      vertex 2.68999 5 2.84
    endloop
  endfacet
  facet normal 0 1 -0
    outer loop
      vertex 2.99997 5 0
      vertex 2.68999 5 2.84
      vertex 5.38998 5 2.82815
    endloop
  endfacet
  facet normal 0 1 0
    outer loop
      vertex 2.68999 5 2.84
      vertex 2.99997 5 0
      vertex 2.68999 5 0
    endloop
  endfacet
  facet normal 0 1 0
    outer loop
      vertex 7.48999 5 6.47998
      vertex 7.78998 5 5.66815
      vertex 5.08998 5 5.67999
    endloop
  endfacet
  facet normal 0 1 0
    outer loop
      vertex 7.78998 5 5.66815
      vertex 5.08998 5 3.63998
      vertex 5.08998 5 5.67999
    endloop
  endfacet
  facet normal 0 1 0
    outer loop
      vertex 5.38998 5 2.84
      vertex 3.82998 5 3.63998
      vertex 5.08998 5 3.63998
    endloop
  endfacet
  facet normal 0 1 -0
    outer loop
      vertex 5.38998 5 2.82815
      vertex 3.82998 5 3.63998
      vertex 5.38998 5 2.84
    endloop
  endfacet
  facet normal 0 1 -0
    outer loop
      vertex 5.39996 5 2.84
      vertex 5.08998 5 3.63998
      vertex 7.78998 5 5.66815
    endloop
  endfacet
  facet normal 0 1 -0
    outer loop
      vertex 5.38998 5 2.84
      vertex 5.08998 5 3.63998
      vertex 5.39996 5 2.84
    endloop
  endfacet
  facet normal 0 1 0
    outer loop
      vertex 3.82998 5 3.63998
      vertex 2.68999 5 2.84
      vertex 3.13 5 3.63998
    endloop
  endfacet
  facet normal 0 1 0
    outer loop
      vertex 3.13 5 3.63998
      vertex 2.68999 5 2.84
      vertex 2.39999 5 3.63998
    endloop
  endfacet
  facet normal 0 1 0
    outer loop
      vertex 2.39999 5 3.63998
      vertex 2.68999 5 2.84
      vertex 2.39999 5 2.84
    endloop
  endfacet
  facet normal 0 1 0
    outer loop
      vertex 8.62999 5 9.31998
      vertex 10.19 5 8.50815
      vertex 7.48999 5 8.51999
    endloop
  endfacet
  facet normal 0 1 0
    outer loop
      vertex 10.19 5 8.50815
      vertex 7.48999 5 6.47998
      vertex 7.48999 5 8.51999
    endloop
  endfacet
  facet normal 0 1 -0
    outer loop
      vertex 7.79997 5 5.67999
      vertex 7.48999 5 6.47998
      vertex 10.19 5 8.50815
    endloop
  endfacet
  facet normal 0 1 -0
    outer loop
      vertex 7.78998 5 5.67999
      vertex 7.48999 5 6.47998
      vertex 7.79997 5 5.67999
    endloop
  endfacet
  facet normal 0 1 -0
    outer loop
      vertex 7.78998 5 5.66815
      vertex 7.48999 5 6.47998
      vertex 7.78998 5 5.67999
    endloop
  endfacet
  facet normal 0 1 0
    outer loop
      vertex 7.48999 5 6.47998
      vertex 5.08998 5 5.67999
      vertex 4.79999 5 6.47998
    endloop
  endfacet
  facet normal 0 1 0
    outer loop
      vertex 4.79999 5 6.47998
      vertex 5.08998 5 5.67999
      vertex 4.79999 5 5.67999
    endloop
  endfacet
  facet normal 0 1 0
    outer loop
      vertex 12.29 5 12.16
      vertex 12.59 5 11.3481
      vertex 9.88998 5 11.36
    endloop
  endfacet
  facet normal 0 1 0
    outer loop
      vertex 12.59 5 11.3481
      vertex 9.88998 5 9.31998
      vertex 9.88998 5 11.36
    endloop
  endfacet
  facet normal 0 1 0
    outer loop
      vertex 10.19 5 8.51999
      vertex 8.62999 5 9.31998
      vertex 9.88998 5 9.31998
    endloop
  endfacet
  facet normal 0 1 -0
    outer loop
      vertex 10.19 5 8.50815
      vertex 8.62999 5 9.31998
      vertex 10.19 5 8.51999
    endloop
  endfacet
  facet normal 0 1 -0
    outer loop
      vertex 10.2 5 8.51999
      vertex 9.88998 5 9.31998
      vertex 12.59 5 11.3481
    endloop
  endfacet
  facet normal 0 1 -0
    outer loop
      vertex 10.19 5 8.51999
      vertex 9.88998 5 9.31998
      vertex 10.2 5 8.51999
    endloop
  endfacet
  facet normal 0 1 0
    outer loop
      vertex 8.62999 5 9.31998
      vertex 7.48999 5 8.51999
      vertex 7.93001 5 9.31998
    endloop
  endfacet
  facet normal 0 1 0
    outer loop
      vertex 7.93001 5 9.31998
      vertex 7.48999 5 8.51999
      vertex 7.2 5 9.31998
    endloop
  endfacet
  facet normal 0 1 0
    outer loop
      vertex 7.2 5 9.31998
      vertex 7.48999 5 8.51999
      vertex 7.2 5 8.51999
    endloop
  endfacet
  facet normal 0 1 -0
    outer loop
      vertex 8.62999 5 9.31998
      vertex 7.93001 5 12.5636
      vertex 8.62999 5 13.3919
    endloop
  endfacet
  facet normal 0 1 0
    outer loop
      vertex 7.93001 5 12.5636
      vertex 8.62999 5 9.31998
      vertex 7.93001 5 9.31998
    endloop
  endfacet
  facet normal 0 1 -0
    outer loop
      vertex 14.99 5 14.1882
      vertex 14.7 5 14.21
      vertex 14.99 5 14.21
    endloop
  endfacet
  facet normal 0 1 0
    outer loop
      vertex 12.6 5 11.36
      vertex 14.7 5 14.21
      vertex 14.99 5 14.1882
    endloop
  endfacet
  facet normal 0 1 0
    outer loop
      vertex 14.7 5 14.21
      vertex 12.29 5 12.16
      vertex 12.29 5 14.2
    endloop
  endfacet
  facet normal 0 1 0
    outer loop
      vertex 14.7 5 14.21
      vertex 12.6 5 11.36
      vertex 12.29 5 12.16
    endloop
  endfacet
  facet normal 0 1 -0
    outer loop
      vertex 12.59 5 11.36
      vertex 12.29 5 12.16
      vertex 12.6 5 11.36
    endloop
  endfacet
  facet normal 0 1 -0
    outer loop
      vertex 12.59 5 11.3481
      vertex 12.29 5 12.16
      vertex 12.59 5 11.36
    endloop
  endfacet
  facet normal 0 1 0
    outer loop
      vertex 12.29 5 12.16
      vertex 9.88998 5 11.36
      vertex 9.59999 5 12.16
    endloop
  endfacet
  facet normal 0 1 0
    outer loop
      vertex 9.59999 5 12.16
      vertex 9.88998 5 11.36
      vertex 9.59999 5 11.36
    endloop
  endfacet
  facet normal 0 1 -0
    outer loop
      vertex 14.7 5 14.21
      vertex 13.43 5 15
      vertex 14.7 5 15
    endloop
  endfacet
  facet normal 0 1 0
    outer loop
      vertex 12.29 5 14.2
      vertex 13.43 5 15
      vertex 14.7 5 14.21
    endloop
  endfacet
  facet normal 0 1 0
    outer loop
      vertex 13.43 5 15
      vertex 12.29 5 14.2
      vertex 12.73 5 15
    endloop
  endfacet
  facet normal 0 1 0
    outer loop
      vertex 12.73 5 15
      vertex 12.29 5 14.2
      vertex 12 5 15
    endloop
  endfacet
  facet normal 0 1 0
    outer loop
      vertex 12 5 15
      vertex 12.29 5 14.2
      vertex 12 5 14.2
    endloop
  endfacet
  facet normal 0 1 -0
    outer loop
      vertex 8.62999 5 14.4764
      vertex 7.93001 5 15.5636
      vertex 8.62999 5 16.3919
    endloop
  endfacet
  facet normal 0 1 0
    outer loop
      vertex 7.93001 5 15.5636
      vertex 8.62999 5 14.4764
      vertex 7.93001 5 13.6481
    endloop
  endfacet
  facet normal 0 1 0
    outer loop
      vertex 13.43 5 22.2
      vertex 12.73 5 19.3281
      vertex 12.73 5 21.2436
    endloop
  endfacet
  facet normal 0 1 0
    outer loop
      vertex 13.43 5 22.2
      vertex 12.73 5 18.2436
      vertex 12.73 5 19.3281
    endloop
  endfacet
  facet normal 0 1 -0
    outer loop
      vertex 13.43 5 15
      vertex 12.73 5 18.2436
      vertex 13.43 5 22.2
    endloop
  endfacet
  facet normal 0 1 0
    outer loop
      vertex 12.73 5 18.2436
      vertex 13.43 5 15
      vertex 12.73 5 15
    endloop
  endfacet
  facet normal 0 1 0
    outer loop
      vertex 13.1143 5 22.5483
      vertex 13.0457 5 22.5483
      vertex 13.08 5 22.55
    endloop
  endfacet
  facet normal 0 1 0
    outer loop
      vertex 13.1483 5 22.5433
      vertex 13.0457 5 22.5483
      vertex 13.1143 5 22.5483
    endloop
  endfacet
  facet normal 0 1 0
    outer loop
      vertex 13.1483 5 22.5433
      vertex 13.0117 5 22.5433
      vertex 13.0457 5 22.5483
    endloop
  endfacet
  facet normal 0 1 0
    outer loop
      vertex 13.1816 5 22.5349
      vertex 13.0117 5 22.5433
      vertex 13.1483 5 22.5433
    endloop
  endfacet
  facet normal 0 1 0
    outer loop
      vertex 13.1816 5 22.5349
      vertex 12.9784 5 22.5349
      vertex 13.0117 5 22.5433
    endloop
  endfacet
  facet normal 0 1 0
    outer loop
      vertex 13.2139 5 22.5233
      vertex 12.9784 5 22.5349
      vertex 13.1816 5 22.5349
    endloop
  endfacet
  facet normal 0 1 0
    outer loop
      vertex 13.2139 5 22.5233
      vertex 12.9461 5 22.5233
      vertex 12.9784 5 22.5349
    endloop
  endfacet
  facet normal 0 1 0
    outer loop
      vertex 13.245 5 22.5087
      vertex 12.9461 5 22.5233
      vertex 13.2139 5 22.5233
    endloop
  endfacet
  facet normal 0 1 0
    outer loop
      vertex 13.245 5 22.5087
      vertex 12.915 5 22.5087
      vertex 12.9461 5 22.5233
    endloop
  endfacet
  facet normal 0 1 0
    outer loop
      vertex 13.2744 5 22.491
      vertex 12.915 5 22.5087
      vertex 13.245 5 22.5087
    endloop
  endfacet
  facet normal 0 1 0
    outer loop
      vertex 13.2744 5 22.491
      vertex 12.8856 5 22.491
      vertex 12.915 5 22.5087
    endloop
  endfacet
  facet normal 0 1 0
    outer loop
      vertex 13.302 5 22.4706
      vertex 12.8856 5 22.491
      vertex 13.2744 5 22.491
    endloop
  endfacet
  facet normal 0 1 0
    outer loop
      vertex 13.302 5 22.4706
      vertex 12.858 5 22.4706
      vertex 12.8856 5 22.491
    endloop
  endfacet
  facet normal 0 1 0
    outer loop
      vertex 13.3275 5 22.4475
      vertex 12.858 5 22.4706
      vertex 13.302 5 22.4706
    endloop
  endfacet
  facet normal 0 1 0
    outer loop
      vertex 13.3275 5 22.4475
      vertex 12.8325 5 22.4475
      vertex 12.858 5 22.4706
    endloop
  endfacet
  facet normal 0 1 0
    outer loop
      vertex 13.3275 5 22.4475
      vertex 12.8127 5 22.4259
      vertex 12.8325 5 22.4475
    endloop
  endfacet
  facet normal 0 1 0
    outer loop
      vertex 13.3506 5 22.422
      vertex 12.8127 5 22.4259
      vertex 13.3275 5 22.4475
    endloop
  endfacet
  facet normal 0 1 0
    outer loop
      vertex 13.371 5 22.3944
      vertex 12.8127 5 22.4259
      vertex 13.3506 5 22.422
    endloop
  endfacet
  facet normal 0 1 0
    outer loop
      vertex 13.3887 5 22.365
      vertex 12.8127 5 22.4259
      vertex 13.371 5 22.3944
    endloop
  endfacet
  facet normal 0 1 0
    outer loop
      vertex 13.4033 5 22.3339
      vertex 12.8127 5 22.4259
      vertex 13.3887 5 22.365
    endloop
  endfacet
  facet normal 0 1 0
    outer loop
      vertex 13.4149 5 22.3016
      vertex 12.8127 5 22.4259
      vertex 13.4033 5 22.3339
    endloop
  endfacet
  facet normal 0 1 0
    outer loop
      vertex 13.4233 5 22.2683
      vertex 12.8127 5 22.4259
      vertex 13.4149 5 22.3016
    endloop
  endfacet
  facet normal 0 1 0
    outer loop
      vertex 13.4283 5 22.2343
      vertex 12.8127 5 22.4259
      vertex 13.4233 5 22.2683
    endloop
  endfacet
  facet normal 0 1 0
    outer loop
      vertex 13.43 5 22.2
      vertex 12.8127 5 22.4259
      vertex 13.4283 5 22.2343
    endloop
  endfacet
  facet normal 0 1 0
    outer loop
      vertex 12.73 5 21.2436
      vertex 12.8127 5 22.4259
      vertex 13.43 5 22.2
    endloop
  endfacet
  facet normal 0 1 0
    outer loop
      vertex 8.62999 5 16.3919
      vertex 12.8127 5 22.4259
      vertex 12.73 5 21.2436
    endloop
  endfacet
  facet normal 0 1 0
    outer loop
      vertex 3.20944 5 11.062
      vertex 8.62999 5 16.3919
      vertex 7.93001 5 15.5636
    endloop
  endfacet
  facet normal 0 1 -0
    outer loop
      vertex 8.62999 5 16.3919
      vertex 3.20944 5 11.062
      vertex 12.8127 5 22.4259
    endloop
  endfacet
  facet normal 0 1 -0
    outer loop
      vertex 3.82998 5 10.7119
      vertex 3.20944 5 11.062
      vertex 7.93001 5 15.5636
    endloop
  endfacet
  facet normal 0 1 0
    outer loop
      vertex 3.20944 5 11.062
      vertex 3.82998 5 10.7119
      vertex 3.18899 5 11.0344
    endloop
  endfacet
  facet normal 0 1 0
    outer loop
      vertex 3.18899 5 11.0344
      vertex 3.82998 5 10.7119
      vertex 3.17132 5 11.005
    endloop
  endfacet
  facet normal 0 1 0
    outer loop
      vertex 3.17132 5 11.005
      vertex 3.82998 5 10.7119
      vertex 3.15664 5 10.9739
    endloop
  endfacet
  facet normal 0 1 0
    outer loop
      vertex 3.15664 5 10.9739
      vertex 3.82998 5 10.7119
      vertex 3.14508 5 10.9416
    endloop
  endfacet
  facet normal 0 1 0
    outer loop
      vertex 3.14508 5 10.9416
      vertex 3.82998 5 10.7119
      vertex 3.13673 5 10.9083
    endloop
  endfacet
  facet normal 0 1 0
    outer loop
      vertex 3.13673 5 10.9083
      vertex 3.82998 5 10.7119
      vertex 3.13168 5 10.8743
    endloop
  endfacet
  facet normal 0 1 0
    outer loop
      vertex 3.13168 5 10.8743
      vertex 3.82998 5 10.7119
      vertex 3.13 5 10.84
    endloop
  endfacet
  facet normal 0 1 -0
    outer loop
      vertex 3.82998 5 8.7964
      vertex 3.13 5 10.84
      vertex 3.82998 5 10.7119
    endloop
  endfacet
  facet normal 0 1 -0
    outer loop
      vertex 3.82998 5 7.71188
      vertex 3.13 5 10.84
      vertex 3.82998 5 8.7964
    endloop
  endfacet
  facet normal 0 1 0
    outer loop
      vertex 3.13 5 3.63998
      vertex 3.82998 5 7.71188
      vertex 3.82998 5 3.63998
    endloop
  endfacet
  facet normal 0 1 0
    outer loop
      vertex 3.82998 5 7.71188
      vertex 3.13 5 3.63998
      vertex 3.13 5 10.84
    endloop
  endfacet
  facet normal 0 1 -0
    outer loop
      vertex 12.73 5 18.2436
      vertex 8.62999 5 14.4764
      vertex 12.73 5 19.3281
    endloop
  endfacet
  facet normal 0 1 0
    outer loop
      vertex 8.62999 5 13.3919
      vertex 8.62999 5 14.4764
      vertex 12.73 5 18.2436
    endloop
  endfacet
  facet normal 0 1 0
    outer loop
      vertex 8.62999 5 14.4764
      vertex 8.62999 5 13.3919
      vertex 7.93001 5 13.6481
    endloop
  endfacet
  facet normal 0 1 0
    outer loop
      vertex 7.93001 5 12.5636
      vertex 7.93001 5 13.6481
      vertex 8.62999 5 13.3919
    endloop
  endfacet
  facet normal 0 1 -0
    outer loop
      vertex 7.93001 5 12.5636
      vertex 3.82998 5 8.7964
      vertex 7.93001 5 13.6481
    endloop
  endfacet
  facet normal -0 1 0
    outer loop
      vertex 3.82998 5 8.7964
      vertex 7.93001 5 12.5636
      vertex 3.82998 5 7.71188
    endloop
  endfacet
  facet normal 0 -1 0
    outer loop
      vertex 7.48999 -5 8.51999
      vertex 7.2 -5 9.31998
      vertex 7.2 -5 8.51999
    endloop
  endfacet
  facet normal 0 -1 0
    outer loop
      vertex 9.88998 -5 11.36
      vertex 12.29 -5 12.16
      vertex 9.59999 -5 12.16
    endloop
  endfacet
  facet normal 0 -1 0
    outer loop
      vertex 9.88998 -5 11.36
      vertex 9.59999 -5 12.16
      vertex 9.59999 -5 11.36
    endloop
  endfacet
  facet normal 0 -1 0
    outer loop
      vertex 12.59 -5 11.3481
      vertex 12.29 -5 12.16
      vertex 9.88998 -5 11.36
    endloop
  endfacet
  facet normal 0 -1 0
    outer loop
      vertex 12.29 -5 12.16
      vertex 12.59 -5 11.3481
      vertex 12.59 -5 11.36
    endloop
  endfacet
  facet normal 0 -1 0
    outer loop
      vertex 9.88998 -5 9.31998
      vertex 12.59 -5 11.3481
      vertex 9.88998 -5 11.36
    endloop
  endfacet
  facet normal 0 -1 0
    outer loop
      vertex 7.2 -5 9.31998
      vertex 7.48999 -5 8.51999
      vertex 9.88998 -5 9.31998
    endloop
  endfacet
  facet normal 0 -1 0
    outer loop
      vertex 10.19 -5 8.50815
      vertex 9.88998 -5 9.31998
      vertex 7.48999 -5 8.51999
    endloop
  endfacet
  facet normal 0 -1 0
    outer loop
      vertex 10.2 -5 8.51999
      vertex 9.88998 -5 9.31998
      vertex 10.19 -5 8.51999
    endloop
  endfacet
  facet normal 0 -1 0
    outer loop
      vertex 9.88998 -5 9.31998
      vertex 10.2 -5 8.51999
      vertex 12.59 -5 11.3481
    endloop
  endfacet
  facet normal 0 -1 0
    outer loop
      vertex 12.29 -5 14.2
      vertex 14.7 -5 15
      vertex 12 -5 15
    endloop
  endfacet
  facet normal 0 -1 0
    outer loop
      vertex 12.29 -5 14.2
      vertex 12 -5 15
      vertex 12 -5 14.2
    endloop
  endfacet
  facet normal 0 -1 -0
    outer loop
      vertex 14.7 -5 15
      vertex 12.29 -5 14.2
      vertex 14.7 -5 14.21
    endloop
  endfacet
  facet normal 0 -1 0
    outer loop
      vertex 12.29 -5 12.16
      vertex 14.7 -5 14.21
      vertex 12.29 -5 14.2
    endloop
  endfacet
  facet normal 0 -1 0
    outer loop
      vertex 14.7 -5 14.21
      vertex 14.99 -5 14.1882
      vertex 14.99 -5 14.21
    endloop
  endfacet
  facet normal 0 -1 0
    outer loop
      vertex 12.6 -5 11.36
      vertex 14.7 -5 14.21
      vertex 12.29 -5 12.16
    endloop
  endfacet
  facet normal 0 -1 0
    outer loop
      vertex 12.6 -5 11.36
      vertex 12.29 -5 12.16
      vertex 12.59 -5 11.36
    endloop
  endfacet
  facet normal 0 -1 -0
    outer loop
      vertex 14.7 -5 14.21
      vertex 12.6 -5 11.36
      vertex 14.99 -5 14.1882
    endloop
  endfacet
  facet normal 0 -1 0
    outer loop
      vertex 9.88998 -5 9.31998
      vertex 10.19 -5 8.50815
      vertex 10.19 -5 8.51999
    endloop
  endfacet
  facet normal 2.05015e-09 -1 4.67485e-07
    outer loop
      vertex 10.19 -5 8.50815
      vertex 7.48999 -5 8.51999
      vertex 7.48999 -5 6.47998
    endloop
  endfacet
  facet normal 2.73582e-07 -1 1.06009e-07
    outer loop
      vertex 7.79997 -5 5.67999
      vertex 10.19 -5 8.50815
      vertex 7.48999 -5 6.47998
    endloop
  endfacet
  facet normal 0 -1 0
    outer loop
      vertex 2.68999 -5 2.84
      vertex 2.39999 -5 3.63998
      vertex 2.39999 -5 2.84
    endloop
  endfacet
  facet normal 0 -1 0
    outer loop
      vertex 7.48999 -5 6.47998
      vertex 7.78998 -5 5.66815
      vertex 7.78998 -5 5.67999
    endloop
  endfacet
  facet normal 0 -1 0
    outer loop
      vertex 5.08998 -5 3.63998
      vertex 7.78998 -5 5.66815
      vertex 5.08998 -5 5.67999
    endloop
  endfacet
  facet normal 0 -1 0
    outer loop
      vertex 2.39999 -5 3.63998
      vertex 2.68999 -5 2.84
      vertex 5.08998 -5 3.63998
    endloop
  endfacet
  facet normal 0 -1 0
    outer loop
      vertex 5.38998 -5 2.82816
      vertex 5.08998 -5 3.63998
      vertex 2.68999 -5 2.84
    endloop
  endfacet
  facet normal 0 -1 0
    outer loop
      vertex 5.39996 -5 2.84
      vertex 5.08998 -5 3.63998
      vertex 5.38998 -5 2.84
    endloop
  endfacet
  facet normal 0 -1 0
    outer loop
      vertex 5.08998 -5 3.63998
      vertex 5.39996 -5 2.84
      vertex 7.78998 -5 5.66815
    endloop
  endfacet
  facet normal 0 -1 0
    outer loop
      vertex 5.08998 -5 5.67999
      vertex 4.79999 -5 6.47998
      vertex 4.79999 -5 5.67999
    endloop
  endfacet
  facet normal 0 -1 0
    outer loop
      vertex 4.79999 -5 6.47998
      vertex 5.08998 -5 5.67999
      vertex 7.48999 -5 6.47998
    endloop
  endfacet
  facet normal 0 -1 0
    outer loop
      vertex 7.78998 -5 5.66815
      vertex 7.48999 -5 6.47998
      vertex 5.08998 -5 5.67999
    endloop
  endfacet
  facet normal 0 -1 0
    outer loop
      vertex 7.48999 -5 6.47998
      vertex 7.78998 -5 5.67999
      vertex 7.79997 -5 5.67999
    endloop
  endfacet
  facet normal 0 -1 0
    outer loop
      vertex 5.08998 -5 3.63998
      vertex 5.38998 -5 2.82816
      vertex 5.38998 -5 2.84
    endloop
  endfacet
  facet normal 0 -1 0
    outer loop
      vertex 2.99997 -5 0
      vertex 2.68999 -5 2.84
      vertex 2.68999 -5 0
    endloop
  endfacet
  facet normal 0 -1 0
    outer loop
      vertex 2.68999 -5 2.84
      vertex 2.99997 -5 0
      vertex 5.38998 -5 2.82816
    endloop
  endfacet
  facet normal 1 0 0
    outer loop
      vertex 5.38998 -5 2.84
      vertex 5.38998 5 2.82815
      vertex 5.38998 5 2.84
    endloop
  endfacet
  facet normal 1 0 0
    outer loop
      vertex 5.38998 5 2.82815
      vertex 5.38998 -5 2.84
      vertex 5.38998 -5 2.82816
    endloop
  endfacet
  facet normal 0 -9.53674e-08 -1
    outer loop
      vertex 5.38998 -5 2.84
      vertex 5.39996 5 2.84
      vertex 5.39996 -5 2.84
    endloop
  endfacet
  facet normal -0 -9.53674e-08 -1
    outer loop
      vertex 5.39996 5 2.84
      vertex 5.38998 -5 2.84
      vertex 5.38998 5 2.84
    endloop
  endfacet
  facet normal 0.763791 -6.15562e-08 -0.645464
    outer loop
      vertex 5.39996 5 2.84
      vertex 7.78998 5 5.66815
      vertex 5.39996 -5 2.84
    endloop
  endfacet
  facet normal 0.763791 0 -0.645464
    outer loop
      vertex 7.78998 5 5.66815
      vertex 7.78998 -5 5.66815
      vertex 5.39996 -5 2.84
    endloop
  endfacet
  facet normal 1 -0 0
    outer loop
      vertex 7.78998 -5 5.67999
      vertex 7.78998 5 5.66815
      vertex 7.78998 5 5.67999
    endloop
  endfacet
  facet normal 1 0 0
    outer loop
      vertex 7.78998 5 5.66815
      vertex 7.78998 -5 5.67999
      vertex 7.78998 -5 5.66815
    endloop
  endfacet
  facet normal 0 0 -1
    outer loop
      vertex 7.78998 -5 5.67999
      vertex 7.79997 5 5.67999
      vertex 7.79997 -5 5.67999
    endloop
  endfacet
  facet normal -0 0 -1
    outer loop
      vertex 7.79997 5 5.67999
      vertex 7.78998 -5 5.67999
      vertex 7.78998 5 5.67999
    endloop
  endfacet
  facet normal 0.763791 0 -0.645464
    outer loop
      vertex 10.19 -5 8.50815
      vertex 7.79997 5 5.67999
      vertex 10.19 5 8.50815
    endloop
  endfacet
  facet normal 0.763791 0 -0.645464
    outer loop
      vertex 7.79997 5 5.67999
      vertex 10.19 -5 8.50815
      vertex 7.79997 -5 5.67999
    endloop
  endfacet
  facet normal 1 -0 0
    outer loop
      vertex 10.19 -5 8.51999
      vertex 10.19 5 8.50815
      vertex 10.19 5 8.51999
    endloop
  endfacet
  facet normal 1 0 0
    outer loop
      vertex 10.19 5 8.50815
      vertex 10.19 -5 8.51999
      vertex 10.19 -5 8.50815
    endloop
  endfacet
  facet normal 0 0 -1
    outer loop
      vertex 10.19 -5 8.51999
      vertex 10.2 5 8.51999
      vertex 10.2 -5 8.51999
    endloop
  endfacet
  facet normal -0 0 -1
    outer loop
      vertex 10.2 5 8.51999
      vertex 10.19 -5 8.51999
      vertex 10.19 5 8.51999
    endloop
  endfacet
  facet normal 0.763791 0 -0.645464
    outer loop
      vertex 12.59 -5 11.3481
      vertex 10.2 5 8.51999
      vertex 12.59 5 11.3481
    endloop
  endfacet
  facet normal 0.763791 0 -0.645464
    outer loop
      vertex 10.2 5 8.51999
      vertex 12.59 -5 11.3481
      vertex 10.2 -5 8.51999
    endloop
  endfacet
  facet normal 1 -0 0
    outer loop
      vertex 12.59 -5 11.36
      vertex 12.59 5 11.3481
      vertex 12.59 5 11.36
    endloop
  endfacet
  facet normal 1 0 0
    outer loop
      vertex 12.59 5 11.3481
      vertex 12.59 -5 11.36
      vertex 12.59 -5 11.3481
    endloop
  endfacet
  facet normal 0 0 -1
    outer loop
      vertex 12.59 -5 11.36
      vertex 12.6 5 11.36
      vertex 12.6 -5 11.36
    endloop
  endfacet
  facet normal -0 0 -1
    outer loop
      vertex 12.6 5 11.36
      vertex 12.59 -5 11.36
      vertex 12.59 5 11.36
    endloop
  endfacet
  facet normal 0.763791 0 -0.645464
    outer loop
      vertex 14.99 -5 14.1882
      vertex 12.6 5 11.36
      vertex 14.99 5 14.1882
    endloop
  endfacet
  facet normal 0.763791 0 -0.645464
    outer loop
      vertex 12.6 5 11.36
      vertex 14.99 -5 14.1882
      vertex 12.6 -5 11.36
    endloop
  endfacet
  facet normal 1 -0 0
    outer loop
      vertex 14.99 -5 14.21
      vertex 14.99 5 14.1882
      vertex 14.99 5 14.21
    endloop
  endfacet
  facet normal 1 0 0
    outer loop
      vertex 14.99 5 14.1882
      vertex 14.99 -5 14.21
      vertex 14.99 -5 14.1882
    endloop
  endfacet
  facet normal -0 0 1
    outer loop
      vertex 14.7 5 14.21
      vertex 14.99 -5 14.21
      vertex 14.99 5 14.21
    endloop
  endfacet
  facet normal 0 0 1
    outer loop
      vertex 14.99 -5 14.21
      vertex 14.7 5 14.21
      vertex 14.7 -5 14.21
    endloop
  endfacet
  facet normal 1 -0 0
    outer loop
      vertex 14.7 -5 15
      vertex 14.7 5 14.21
      vertex 14.7 5 15
    endloop
  endfacet
  facet normal 1 0 0
    outer loop
      vertex 14.7 5 14.21
      vertex 14.7 -5 15
      vertex 14.7 -5 14.21
    endloop
  endfacet
  facet normal 0 0 1
    outer loop
      vertex 12.73 5 15
      vertex 12 5 15
      vertex 12.73 4.5 15
    endloop
  endfacet
  facet normal 0 0 1
    outer loop
      vertex 13.43 4.5 15
      vertex 14.7 5 15
      vertex 13.43 5 15
    endloop
  endfacet
  facet normal 0 0 1
    outer loop
      vertex 14.7 5 15
      vertex 13.43 4.5 15
      vertex 14.7 -5 15
    endloop
  endfacet
  facet normal 0 0 1
    outer loop
      vertex 12 -5 15
      vertex 13.43 4.5 15
      vertex 12.73 4.5 15
    endloop
  endfacet
  facet normal 0 0 1
    outer loop
      vertex 12 -5 15
      vertex 12.73 4.5 15
      vertex 12 5 15
    endloop
  endfacet
  facet normal 0 0 1
    outer loop
      vertex 13.43 4.5 15
      vertex 12 -5 15
      vertex 14.7 -5 15
    endloop
  endfacet
  facet normal -1 0 0
    outer loop
      vertex 12 -5 14.2
      vertex 12 5 15
      vertex 12 5 14.2
    endloop
  endfacet
  facet normal -1 -0 0
    outer loop
      vertex 12 5 15
      vertex 12 -5 14.2
      vertex 12 -5 15
    endloop
  endfacet
  facet normal 0 0 -1
    outer loop
      vertex 12 -5 14.2
      vertex 12.29 5 14.2
      vertex 12.29 -5 14.2
    endloop
  endfacet
  facet normal -0 0 -1
    outer loop
      vertex 12.29 5 14.2
      vertex 12 -5 14.2
      vertex 12 5 14.2
    endloop
  endfacet
  facet normal -1 0 0
    outer loop
      vertex 12.29 -5 12.16
      vertex 12.29 5 14.2
      vertex 12.29 5 12.16
    endloop
  endfacet
  facet normal -1 -0 0
    outer loop
      vertex 12.29 5 14.2
      vertex 12.29 -5 12.16
      vertex 12.29 -5 14.2
    endloop
  endfacet
  facet normal -0 0 1
    outer loop
      vertex 9.59999 5 12.16
      vertex 12.29 -5 12.16
      vertex 12.29 5 12.16
    endloop
  endfacet
  facet normal 0 0 1
    outer loop
      vertex 12.29 -5 12.16
      vertex 9.59999 5 12.16
      vertex 9.59999 -5 12.16
    endloop
  endfacet
  facet normal -1 0 0
    outer loop
      vertex 9.59999 -5 11.36
      vertex 9.59999 5 12.16
      vertex 9.59999 5 11.36
    endloop
  endfacet
  facet normal -1 -0 0
    outer loop
      vertex 9.59999 5 12.16
      vertex 9.59999 -5 11.36
      vertex 9.59999 -5 12.16
    endloop
  endfacet
  facet normal 0 0 -1
    outer loop
      vertex 9.59999 -5 11.36
      vertex 9.88998 5 11.36
      vertex 9.88998 -5 11.36
    endloop
  endfacet
  facet normal -0 0 -1
    outer loop
      vertex 9.88998 5 11.36
      vertex 9.59999 -5 11.36
      vertex 9.59999 5 11.36
    endloop
  endfacet
  facet normal -1 0 0
    outer loop
      vertex 9.88998 -5 9.31998
      vertex 9.88998 5 11.36
      vertex 9.88998 5 9.31998
    endloop
  endfacet
  facet normal -1 -0 0
    outer loop
      vertex 9.88998 5 11.36
      vertex 9.88998 -5 9.31998
      vertex 9.88998 -5 11.36
    endloop
  endfacet
  facet normal 0 0 1
    outer loop
      vertex 7.93001 5 9.31998
      vertex 7.2 5 9.31998
      vertex 7.93001 4.5 9.31998
    endloop
  endfacet
  facet normal 0 0 1
    outer loop
      vertex 8.62999 4.5 9.31998
      vertex 9.88998 5 9.31998
      vertex 8.62999 5 9.31998
    endloop
  endfacet
  facet normal 0 0 1
    outer loop
      vertex 9.88998 5 9.31998
      vertex 8.62999 4.5 9.31998
      vertex 9.88998 -5 9.31998
    endloop
  endfacet
  facet normal 0 0 1
    outer loop
      vertex 7.2 -5 9.31998
      vertex 8.62999 4.5 9.31998
      vertex 7.93001 4.5 9.31998
    endloop
  endfacet
  facet normal 0 0 1
    outer loop
      vertex 7.2 -5 9.31998
      vertex 7.93001 4.5 9.31998
      vertex 7.2 5 9.31998
    endloop
  endfacet
  facet normal 0 0 1
    outer loop
      vertex 8.62999 4.5 9.31998
      vertex 7.2 -5 9.31998
      vertex 9.88998 -5 9.31998
    endloop
  endfacet
  facet normal -1 0 0
    outer loop
      vertex 7.2 -5 8.51999
      vertex 7.2 5 9.31998
      vertex 7.2 5 8.51999
    endloop
  endfacet
  facet normal -1 -0 0
    outer loop
      vertex 7.2 5 9.31998
      vertex 7.2 -5 8.51999
      vertex 7.2 -5 9.31998
    endloop
  endfacet
  facet normal 0 0 -1
    outer loop
      vertex 7.2 -5 8.51999
      vertex 7.48999 5 8.51999
      vertex 7.48999 -5 8.51999
    endloop
  endfacet
  facet normal -0 0 -1
    outer loop
      vertex 7.48999 5 8.51999
      vertex 7.2 -5 8.51999
      vertex 7.2 5 8.51999
    endloop
  endfacet
  facet normal -1 0 0
    outer loop
      vertex 7.48999 5 6.47998
      vertex 7.48999 -5 8.51999
      vertex 7.48999 5 8.51999
    endloop
  endfacet
  facet normal -1 0 -0
    outer loop
      vertex 7.48999 -5 8.51999
      vertex 7.48999 5 6.47998
      vertex 7.48999 -5 6.47998
    endloop
  endfacet
  facet normal -0 0 1
    outer loop
      vertex 4.79999 5 6.47998
      vertex 7.48999 -5 6.47998
      vertex 7.48999 5 6.47998
    endloop
  endfacet
  facet normal 0 0 1
    outer loop
      vertex 7.48999 -5 6.47998
      vertex 4.79999 5 6.47998
      vertex 4.79999 -5 6.47998
    endloop
  endfacet
  facet normal -1 0 0
    outer loop
      vertex 4.79999 -5 5.67999
      vertex 4.79999 5 6.47998
      vertex 4.79999 5 5.67999
    endloop
  endfacet
  facet normal -1 -0 0
    outer loop
      vertex 4.79999 5 6.47998
      vertex 4.79999 -5 5.67999
      vertex 4.79999 -5 6.47998
    endloop
  endfacet
  facet normal 0 0 -1
    outer loop
      vertex 4.79999 -5 5.67999
      vertex 5.08998 5 5.67999
      vertex 5.08998 -5 5.67999
    endloop
  endfacet
  facet normal -0 0 -1
    outer loop
      vertex 5.08998 5 5.67999
      vertex 4.79999 -5 5.67999
      vertex 4.79999 5 5.67999
    endloop
  endfacet
  facet normal -1 0 0
    outer loop
      vertex 5.08998 -5 3.63998
      vertex 5.08998 5 5.67999
      vertex 5.08998 5 3.63998
    endloop
  endfacet
  facet normal -1 -0 0
    outer loop
      vertex 5.08998 5 5.67999
      vertex 5.08998 -5 3.63998
      vertex 5.08998 -5 5.67999
    endloop
  endfacet
  facet normal 0 0 1
    outer loop
      vertex 3.13 5 3.63998
      vertex 2.39999 5 3.63998
      vertex 3.13 4.5 3.63998
    endloop
  endfacet
  facet normal 0 0 1
    outer loop
      vertex 3.82998 4.5 3.63998
      vertex 5.08998 5 3.63998
      vertex 3.82998 5 3.63998
    endloop
  endfacet
  facet normal -3.78443e-08 9.53674e-08 1
    outer loop
      vertex 5.08998 5 3.63998
      vertex 3.82998 4.5 3.63998
      vertex 5.08998 -5 3.63998
    endloop
  endfacet
  facet normal 0 1.00387e-07 1
    outer loop
      vertex 2.39999 -5 3.63998
      vertex 3.82998 4.5 3.63998
      vertex 3.13 4.5 3.63998
    endloop
  endfacet
  facet normal 6.53193e-08 9.53674e-08 1
    outer loop
      vertex 2.39999 -5 3.63998
      vertex 3.13 4.5 3.63998
      vertex 2.39999 5 3.63998
    endloop
  endfacet
  facet normal 0 1.00387e-07 1
    outer loop
      vertex 3.82998 4.5 3.63998
      vertex 2.39999 -5 3.63998
      vertex 5.08998 -5 3.63998
    endloop
  endfacet
  facet normal -1 0 0
    outer loop
      vertex 2.39999 -5 2.84
      vertex 2.39999 5 3.63998
      vertex 2.39999 5 2.84
    endloop
  endfacet
  facet normal -1 -0 0
    outer loop
      vertex 2.39999 5 3.63998
      vertex 2.39999 -5 2.84
      vertex 2.39999 -5 3.63998
    endloop
  endfacet
  facet normal 0 -9.53674e-08 -1
    outer loop
      vertex 2.39999 -5 2.84
      vertex 2.68999 5 2.84
      vertex 2.68999 -5 2.84
    endloop
  endfacet
  facet normal -0 -9.53674e-08 -1
    outer loop
      vertex 2.68999 5 2.84
      vertex 2.39999 -5 2.84
      vertex 2.39999 5 2.84
    endloop
  endfacet
  facet normal -1 0 0
    outer loop
      vertex 2.68999 -5 0
      vertex 2.68999 5 2.84
      vertex 2.68999 5 0
    endloop
  endfacet
  facet normal -1 -0 0
    outer loop
      vertex 2.68999 5 2.84
      vertex 2.68999 -5 0
      vertex 2.68999 -5 2.84
    endloop
  endfacet
  facet normal 0 0 -1
    outer loop
      vertex 2.68999 -5 0
      vertex 2.99997 5 0
      vertex 2.99997 -5 0
    endloop
  endfacet
  facet normal -0 0 -1
    outer loop
      vertex 2.99997 5 0
      vertex 2.68999 -5 0
      vertex 2.68999 5 0
    endloop
  endfacet
  facet normal 0.763791 0 -0.645464
    outer loop
      vertex 2.99997 5 0
      vertex 5.38998 5 2.82815
      vertex 2.99997 -5 0
    endloop
  endfacet
  facet normal 0.763791 -6.15562e-08 -0.645464
    outer loop
      vertex 5.38998 5 2.82815
      vertex 5.38998 -5 2.82816
      vertex 2.99997 -5 0
    endloop
  endfacet
  facet normal 0 -1 0
    outer loop
      vertex 8.62999 4.5 9.31998
      vertex 7.93001 4.5 12.5636
      vertex 7.93001 4.5 9.31998
    endloop
  endfacet
  facet normal 0 -1 0
    outer loop
      vertex 7.93001 4.5 12.5636
      vertex 8.62999 4.5 9.31998
      vertex 8.62999 4.5 13.3919
    endloop
  endfacet
  facet normal 0 -1 0
    outer loop
      vertex 8.62999 4.5 14.4764
      vertex 12.73 4.5 18.2436
      vertex 12.73 4.5 19.3281
    endloop
  endfacet
  facet normal 0 -1 0
    outer loop
      vertex 8.62999 4.5 13.3919
      vertex 8.62999 4.5 14.4764
      vertex 7.93001 4.5 13.6481
    endloop
  endfacet
  facet normal 0 -1 0
    outer loop
      vertex 8.62999 4.5 14.4764
      vertex 8.62999 4.5 13.3919
      vertex 12.73 4.5 18.2436
    endloop
  endfacet
  facet normal 0 -1 0
    outer loop
      vertex 7.93001 4.5 13.6481
      vertex 7.93001 4.5 12.5636
      vertex 8.62999 4.5 13.3919
    endloop
  endfacet
  facet normal 0 -1 0
    outer loop
      vertex 3.82998 4.5 8.7964
      vertex 7.93001 4.5 12.5636
      vertex 7.93001 4.5 13.6481
    endloop
  endfacet
  facet normal 0 -1 0
    outer loop
      vertex 7.93001 4.5 12.5636
      vertex 3.82998 4.5 8.7964
      vertex 3.82998 4.5 7.71188
    endloop
  endfacet
  facet normal 0 -1 0
    outer loop
      vertex 13.0457 4.5 22.5483
      vertex 13.1143 4.5 22.5483
      vertex 13.08 4.5 22.55
    endloop
  endfacet
  facet normal 0 -1 0
    outer loop
      vertex 13.0117 4.5 22.5433
      vertex 13.1143 4.5 22.5483
      vertex 13.0457 4.5 22.5483
    endloop
  endfacet
  facet normal 0 -1 0
    outer loop
      vertex 13.0117 4.5 22.5433
      vertex 13.1483 4.5 22.5433
      vertex 13.1143 4.5 22.5483
    endloop
  endfacet
  facet normal 0 -1 0
    outer loop
      vertex 12.9784 4.5 22.5349
      vertex 13.1483 4.5 22.5433
      vertex 13.0117 4.5 22.5433
    endloop
  endfacet
  facet normal 0 -1 0
    outer loop
      vertex 12.9784 4.5 22.5349
      vertex 13.1816 4.5 22.5349
      vertex 13.1483 4.5 22.5433
    endloop
  endfacet
  facet normal 0 -1 0
    outer loop
      vertex 12.9461 4.5 22.5233
      vertex 13.1816 4.5 22.5349
      vertex 12.9784 4.5 22.5349
    endloop
  endfacet
  facet normal 0 -1 0
    outer loop
      vertex 12.9461 4.5 22.5233
      vertex 13.2139 4.5 22.5233
      vertex 13.1816 4.5 22.5349
    endloop
  endfacet
  facet normal 0 -1 0
    outer loop
      vertex 12.915 4.5 22.5087
      vertex 13.2139 4.5 22.5233
      vertex 12.9461 4.5 22.5233
    endloop
  endfacet
  facet normal 0 -1 0
    outer loop
      vertex 12.915 4.5 22.5087
      vertex 13.245 4.5 22.5087
      vertex 13.2139 4.5 22.5233
    endloop
  endfacet
  facet normal 0 -1 0
    outer loop
      vertex 12.8856 4.5 22.491
      vertex 13.245 4.5 22.5087
      vertex 12.915 4.5 22.5087
    endloop
  endfacet
  facet normal 0 -1 0
    outer loop
      vertex 12.8856 4.5 22.491
      vertex 13.2744 4.5 22.491
      vertex 13.245 4.5 22.5087
    endloop
  endfacet
  facet normal 0 -1 0
    outer loop
      vertex 12.858 4.5 22.4706
      vertex 13.2744 4.5 22.491
      vertex 12.8856 4.5 22.491
    endloop
  endfacet
  facet normal 0 -1 0
    outer loop
      vertex 12.858 4.5 22.4706
      vertex 13.302 4.5 22.4706
      vertex 13.2744 4.5 22.491
    endloop
  endfacet
  facet normal 0 -1 0
    outer loop
      vertex 12.8325 4.5 22.4475
      vertex 13.302 4.5 22.4706
      vertex 12.858 4.5 22.4706
    endloop
  endfacet
  facet normal 0 -1 0
    outer loop
      vertex 12.8325 4.5 22.4475
      vertex 13.3275 4.5 22.4475
      vertex 13.302 4.5 22.4706
    endloop
  endfacet
  facet normal 0 -1 0
    outer loop
      vertex 12.8127 4.5 22.4259
      vertex 13.3275 4.5 22.4475
      vertex 12.8325 4.5 22.4475
    endloop
  endfacet
  facet normal 0 -1 0
    outer loop
      vertex 12.8127 4.5 22.4259
      vertex 13.3506 4.5 22.422
      vertex 13.3275 4.5 22.4475
    endloop
  endfacet
  facet normal 0 -1 0
    outer loop
      vertex 12.8127 4.5 22.4259
      vertex 13.371 4.5 22.3944
      vertex 13.3506 4.5 22.422
    endloop
  endfacet
  facet normal 0 -1 0
    outer loop
      vertex 12.8127 4.5 22.4259
      vertex 13.3887 4.5 22.365
      vertex 13.371 4.5 22.3944
    endloop
  endfacet
  facet normal 0 -1 0
    outer loop
      vertex 12.8127 4.5 22.4259
      vertex 13.4033 4.5 22.3339
      vertex 13.3887 4.5 22.365
    endloop
  endfacet
  facet normal 0 -1 0
    outer loop
      vertex 12.8127 4.5 22.4259
      vertex 13.4149 4.5 22.3016
      vertex 13.4033 4.5 22.3339
    endloop
  endfacet
  facet normal 0 -1 0
    outer loop
      vertex 12.8127 4.5 22.4259
      vertex 13.4233 4.5 22.2683
      vertex 13.4149 4.5 22.3016
    endloop
  endfacet
  facet normal 0 -1 0
    outer loop
      vertex 12.8127 4.5 22.4259
      vertex 13.4283 4.5 22.2343
      vertex 13.4233 4.5 22.2683
    endloop
  endfacet
  facet normal 0 -1 0
    outer loop
      vertex 12.8127 4.5 22.4259
      vertex 13.43 4.5 22.2
      vertex 13.4283 4.5 22.2343
    endloop
  endfacet
  facet normal 0 -1 -0
    outer loop
      vertex 12.8127 4.5 22.4259
      vertex 12.73 4.5 21.2436
      vertex 13.43 4.5 22.2
    endloop
  endfacet
  facet normal 0 -1 0
    outer loop
      vertex 12.8127 4.5 22.4259
      vertex 8.62999 4.5 16.3919
      vertex 12.73 4.5 21.2436
    endloop
  endfacet
  facet normal 0 -1 0
    outer loop
      vertex 3.20944 4.5 11.062
      vertex 8.62999 4.5 16.3919
      vertex 12.8127 4.5 22.4259
    endloop
  endfacet
  facet normal 0 -1 0
    outer loop
      vertex 8.62999 4.5 16.3919
      vertex 3.20944 4.5 11.062
      vertex 7.93001 4.5 15.5636
    endloop
  endfacet
  facet normal 0 -1 0
    outer loop
      vertex 3.82998 4.5 10.7119
      vertex 3.20944 4.5 11.062
      vertex 3.18899 4.5 11.0344
    endloop
  endfacet
  facet normal 0 -1 0
    outer loop
      vertex 3.82998 4.5 10.7119
      vertex 3.18899 4.5 11.0344
      vertex 3.17132 4.5 11.005
    endloop
  endfacet
  facet normal 0 -1 0
    outer loop
      vertex 3.82998 4.5 10.7119
      vertex 3.17132 4.5 11.005
      vertex 3.15664 4.5 10.9739
    endloop
  endfacet
  facet normal 0 -1 0
    outer loop
      vertex 3.82998 4.5 10.7119
      vertex 3.15664 4.5 10.9739
      vertex 3.14508 4.5 10.9416
    endloop
  endfacet
  facet normal 0 -1 0
    outer loop
      vertex 3.82998 4.5 10.7119
      vertex 3.14508 4.5 10.9416
      vertex 3.13673 4.5 10.9083
    endloop
  endfacet
  facet normal 0 -1 0
    outer loop
      vertex 3.82998 4.5 10.7119
      vertex 3.13673 4.5 10.9083
      vertex 3.13168 4.5 10.8743
    endloop
  endfacet
  facet normal 0 -1 0
    outer loop
      vertex 3.82998 4.5 10.7119
      vertex 3.13168 4.5 10.8743
      vertex 3.13 4.5 10.84
    endloop
  endfacet
  facet normal 0 -1 0
    outer loop
      vertex 3.20944 4.5 11.062
      vertex 3.82998 4.5 10.7119
      vertex 7.93001 4.5 15.5636
    endloop
  endfacet
  facet normal 0 -1 0
    outer loop
      vertex 3.13 4.5 10.84
      vertex 3.82998 4.5 8.7964
      vertex 3.82998 4.5 10.7119
    endloop
  endfacet
  facet normal 0 -1 0
    outer loop
      vertex 3.13 4.5 10.84
      vertex 3.82998 4.5 7.71188
      vertex 3.82998 4.5 8.7964
    endloop
  endfacet
  facet normal 0 -1 0
    outer loop
      vertex 3.13 4.5 3.63998
      vertex 3.82998 4.5 7.71188
      vertex 3.13 4.5 10.84
    endloop
  endfacet
  facet normal 0 -1 -0
    outer loop
      vertex 3.82998 4.5 7.71188
      vertex 3.13 4.5 3.63998
      vertex 3.82998 4.5 3.63998
    endloop
  endfacet
  facet normal 0 -1 0
    outer loop
      vertex 12.73 4.5 19.3281
      vertex 13.43 4.5 22.2
      vertex 12.73 4.5 21.2436
    endloop
  endfacet
  facet normal 0 -1 0
    outer loop
      vertex 12.73 4.5 18.2436
      vertex 13.43 4.5 22.2
      vertex 12.73 4.5 19.3281
    endloop
  endfacet
  facet normal 0 -1 0
    outer loop
      vertex 13.43 4.5 15
      vertex 12.73 4.5 18.2436
      vertex 12.73 4.5 15
    endloop
  endfacet
  facet normal 0 -1 0
    outer loop
      vertex 12.73 4.5 18.2436
      vertex 13.43 4.5 15
      vertex 13.43 4.5 22.2
    endloop
  endfacet
  facet normal 0 -1 0
    outer loop
      vertex 7.93001 4.5 15.5636
      vertex 8.62999 4.5 14.4764
      vertex 8.62999 4.5 16.3919
    endloop
  endfacet
  facet normal -0 -1 0
    outer loop
      vertex 8.62999 4.5 14.4764
      vertex 7.93001 4.5 15.5636
      vertex 7.93001 4.5 13.6481
    endloop
  endfacet
  facet normal 0.763795 0 -0.645459
    outer loop
      vertex 7.93001 4.5 12.5636
      vertex 3.82998 5 7.71188
      vertex 7.93001 5 12.5636
    endloop
  endfacet
  facet normal 0.763795 0 -0.645459
    outer loop
      vertex 3.82998 5 7.71188
      vertex 7.93001 4.5 12.5636
      vertex 3.82998 4.5 7.71188
    endloop
  endfacet
  facet normal -1 0 0
    outer loop
      vertex 7.93001 4.5 9.31998
      vertex 7.93001 5 12.5636
      vertex 7.93001 5 9.31998
    endloop
  endfacet
  facet normal -1 -0 0
    outer loop
      vertex 7.93001 5 12.5636
      vertex 7.93001 4.5 9.31998
      vertex 7.93001 4.5 12.5636
    endloop
  endfacet
  facet normal 1 -0 0
    outer loop
      vertex 8.62999 4.5 13.3919
      vertex 8.62999 5 9.31998
      vertex 8.62999 5 13.3919
    endloop
  endfacet
  facet normal 1 0 0
    outer loop
      vertex 8.62999 5 9.31998
      vertex 8.62999 4.5 13.3919
      vertex 8.62999 4.5 9.31998
    endloop
  endfacet
  facet normal 0.763795 0 -0.645459
    outer loop
      vertex 12.73 4.5 18.2436
      vertex 8.62999 5 13.3919
      vertex 12.73 5 18.2436
    endloop
  endfacet
  facet normal 0.763795 0 -0.645459
    outer loop
      vertex 8.62999 5 13.3919
      vertex 12.73 4.5 18.2436
      vertex 8.62999 4.5 13.3919
    endloop
  endfacet
  facet normal -1 0 0
    outer loop
      vertex 12.73 4.5 15
      vertex 12.73 5 18.2436
      vertex 12.73 5 15
    endloop
  endfacet
  facet normal -1 -0 0
    outer loop
      vertex 12.73 5 18.2436
      vertex 12.73 4.5 15
      vertex 12.73 4.5 18.2436
    endloop
  endfacet
  facet normal 1 -0 0
    outer loop
      vertex 13.43 4.5 22.2
      vertex 13.43 5 15
      vertex 13.43 5 22.2
    endloop
  endfacet
  facet normal 1 0 0
    outer loop
      vertex 13.43 5 15
      vertex 13.43 4.5 22.2
      vertex 13.43 4.5 15
    endloop
  endfacet
  facet normal 0.998805 -0 0.0488739
    outer loop
      vertex 13.4283 4.5 22.2343
      vertex 13.43 5 22.2
      vertex 13.4283 5 22.2343
    endloop
  endfacet
  facet normal 0.998805 0 0.0488739
    outer loop
      vertex 13.43 5 22.2
      vertex 13.4283 4.5 22.2343
      vertex 13.43 4.5 22.2
    endloop
  endfacet
  facet normal 0.989125 -0 0.14708
    outer loop
      vertex 13.4233 4.5 22.2683
      vertex 13.4283 5 22.2343
      vertex 13.4233 5 22.2683
    endloop
  endfacet
  facet normal 0.989125 0 0.14708
    outer loop
      vertex 13.4283 5 22.2343
      vertex 13.4233 4.5 22.2683
      vertex 13.4283 4.5 22.2343
    endloop
  endfacet
  facet normal 0.970038 -0 0.242954
    outer loop
      vertex 13.4149 4.5 22.3016
      vertex 13.4233 5 22.2683
      vertex 13.4149 5 22.3016
    endloop
  endfacet
  facet normal 0.970038 0 0.242954
    outer loop
      vertex 13.4233 5 22.2683
      vertex 13.4149 4.5 22.3016
      vertex 13.4233 4.5 22.2683
    endloop
  endfacet
  facet normal 0.941571 -0 0.336815
    outer loop
      vertex 13.4033 4.5 22.3339
      vertex 13.4149 5 22.3016
      vertex 13.4033 5 22.3339
    endloop
  endfacet
  facet normal 0.941571 0 0.336815
    outer loop
      vertex 13.4149 5 22.3016
      vertex 13.4033 4.5 22.3339
      vertex 13.4149 4.5 22.3016
    endloop
  endfacet
  facet normal 0.904072 -0 0.42738
    outer loop
      vertex 13.3887 4.5 22.365
      vertex 13.4033 5 22.3339
      vertex 13.3887 5 22.365
    endloop
  endfacet
  facet normal 0.904072 0 0.42738
    outer loop
      vertex 13.4033 5 22.3339
      vertex 13.3887 4.5 22.365
      vertex 13.4033 4.5 22.3339
    endloop
  endfacet
  facet normal 0.85761 -0 0.5143
    outer loop
      vertex 13.371 4.5 22.3944
      vertex 13.3887 5 22.365
      vertex 13.371 5 22.3944
    endloop
  endfacet
  facet normal 0.85761 0 0.5143
    outer loop
      vertex 13.3887 5 22.365
      vertex 13.371 4.5 22.3944
      vertex 13.3887 4.5 22.365
    endloop
  endfacet
  facet normal 0.8034 -0 0.59544
    outer loop
      vertex 13.3506 4.5 22.422
      vertex 13.371 5 22.3944
      vertex 13.3506 5 22.422
    endloop
  endfacet
  facet normal 0.8034 0 0.59544
    outer loop
      vertex 13.371 5 22.3944
      vertex 13.3506 4.5 22.422
      vertex 13.371 4.5 22.3944
    endloop
  endfacet
  facet normal 0.740904 -0 0.671611
    outer loop
      vertex 13.3275 4.5 22.4475
      vertex 13.3506 5 22.422
      vertex 13.3275 5 22.4475
    endloop
  endfacet
  facet normal 0.740904 0 0.671611
    outer loop
      vertex 13.3506 5 22.422
      vertex 13.3275 4.5 22.4475
      vertex 13.3506 4.5 22.422
    endloop
  endfacet
  facet normal 0.671611 0 0.740904
    outer loop
      vertex 13.302 5 22.4706
      vertex 13.3275 4.5 22.4475
      vertex 13.3275 5 22.4475
    endloop
  endfacet
  facet normal 0.671611 0 0.740904
    outer loop
      vertex 13.3275 4.5 22.4475
      vertex 13.302 5 22.4706
      vertex 13.302 4.5 22.4706
    endloop
  endfacet
  facet normal 0.59544 0 0.8034
    outer loop
      vertex 13.2744 5 22.491
      vertex 13.302 4.5 22.4706
      vertex 13.302 5 22.4706
    endloop
  endfacet
  facet normal 0.59544 0 0.8034
    outer loop
      vertex 13.302 4.5 22.4706
      vertex 13.2744 5 22.491
      vertex 13.2744 4.5 22.491
    endloop
  endfacet
  facet normal 0.5143 0 0.85761
    outer loop
      vertex 13.245 5 22.5087
      vertex 13.2744 4.5 22.491
      vertex 13.2744 5 22.491
    endloop
  endfacet
  facet normal 0.5143 0 0.85761
    outer loop
      vertex 13.2744 4.5 22.491
      vertex 13.245 5 22.5087
      vertex 13.245 4.5 22.5087
    endloop
  endfacet
  facet normal 0.42738 0 0.904072
    outer loop
      vertex 13.2139 5 22.5233
      vertex 13.245 4.5 22.5087
      vertex 13.245 5 22.5087
    endloop
  endfacet
  facet normal 0.42738 0 0.904072
    outer loop
      vertex 13.245 4.5 22.5087
      vertex 13.2139 5 22.5233
      vertex 13.2139 4.5 22.5233
    endloop
  endfacet
  facet normal 0.336815 0 0.941571
    outer loop
      vertex 13.1816 5 22.5349
      vertex 13.2139 4.5 22.5233
      vertex 13.2139 5 22.5233
    endloop
  endfacet
  facet normal 0.336815 0 0.941571
    outer loop
      vertex 13.2139 4.5 22.5233
      vertex 13.1816 5 22.5349
      vertex 13.1816 4.5 22.5349
    endloop
  endfacet
  facet normal 0.242954 0 0.970038
    outer loop
      vertex 13.1483 5 22.5433
      vertex 13.1816 4.5 22.5349
      vertex 13.1816 5 22.5349
    endloop
  endfacet
  facet normal 0.242954 0 0.970038
    outer loop
      vertex 13.1816 4.5 22.5349
      vertex 13.1483 5 22.5433
      vertex 13.1483 4.5 22.5433
    endloop
  endfacet
  facet normal 0.14708 0 0.989125
    outer loop
      vertex 13.1143 5 22.5483
      vertex 13.1483 4.5 22.5433
      vertex 13.1483 5 22.5433
    endloop
  endfacet
  facet normal 0.14708 0 0.989125
    outer loop
      vertex 13.1483 4.5 22.5433
      vertex 13.1143 5 22.5483
      vertex 13.1143 4.5 22.5483
    endloop
  endfacet
  facet normal 0.0488739 0 0.998805
    outer loop
      vertex 13.08 5 22.55
      vertex 13.1143 4.5 22.5483
      vertex 13.1143 5 22.5483
    endloop
  endfacet
  facet normal 0.0488739 0 0.998805
    outer loop
      vertex 13.1143 4.5 22.5483
      vertex 13.08 5 22.55
      vertex 13.08 4.5 22.55
    endloop
  endfacet
  facet normal -0.0488739 0 0.998805
    outer loop
      vertex 13.0457 5 22.5483
      vertex 13.08 4.5 22.55
      vertex 13.08 5 22.55
    endloop
  endfacet
  facet normal -0.0488739 0 0.998805
    outer loop
      vertex 13.08 4.5 22.55
      vertex 13.0457 5 22.5483
      vertex 13.0457 4.5 22.5483
    endloop
  endfacet
  facet normal -0.14708 0 0.989125
    outer loop
      vertex 13.0117 5 22.5433
      vertex 13.0457 4.5 22.5483
      vertex 13.0457 5 22.5483
    endloop
  endfacet
  facet normal -0.14708 0 0.989125
    outer loop
      vertex 13.0457 4.5 22.5483
      vertex 13.0117 5 22.5433
      vertex 13.0117 4.5 22.5433
    endloop
  endfacet
  facet normal -0.242954 0 0.970038
    outer loop
      vertex 12.9784 5 22.5349
      vertex 13.0117 4.5 22.5433
      vertex 13.0117 5 22.5433
    endloop
  endfacet
  facet normal -0.242954 0 0.970038
    outer loop
      vertex 13.0117 4.5 22.5433
      vertex 12.9784 5 22.5349
      vertex 12.9784 4.5 22.5349
    endloop
  endfacet
  facet normal -0.336815 0 0.941571
    outer loop
      vertex 12.9461 5 22.5233
      vertex 12.9784 4.5 22.5349
      vertex 12.9784 5 22.5349
    endloop
  endfacet
  facet normal -0.336815 0 0.941571
    outer loop
      vertex 12.9784 4.5 22.5349
      vertex 12.9461 5 22.5233
      vertex 12.9461 4.5 22.5233
    endloop
  endfacet
  facet normal -0.42738 0 0.904072
    outer loop
      vertex 12.915 5 22.5087
      vertex 12.9461 4.5 22.5233
      vertex 12.9461 5 22.5233
    endloop
  endfacet
  facet normal -0.42738 0 0.904072
    outer loop
      vertex 12.9461 4.5 22.5233
      vertex 12.915 5 22.5087
      vertex 12.915 4.5 22.5087
    endloop
  endfacet
  facet normal -0.5143 0 0.85761
    outer loop
      vertex 12.8856 5 22.491
      vertex 12.915 4.5 22.5087
      vertex 12.915 5 22.5087
    endloop
  endfacet
  facet normal -0.5143 0 0.85761
    outer loop
      vertex 12.915 4.5 22.5087
      vertex 12.8856 5 22.491
      vertex 12.8856 4.5 22.491
    endloop
  endfacet
  facet normal -0.59544 0 0.8034
    outer loop
      vertex 12.858 5 22.4706
      vertex 12.8856 4.5 22.491
      vertex 12.8856 5 22.491
    endloop
  endfacet
  facet normal -0.59544 0 0.8034
    outer loop
      vertex 12.8856 4.5 22.491
      vertex 12.858 5 22.4706
      vertex 12.858 4.5 22.4706
    endloop
  endfacet
  facet normal -0.671611 0 0.740904
    outer loop
      vertex 12.8325 5 22.4475
      vertex 12.858 4.5 22.4706
      vertex 12.858 5 22.4706
    endloop
  endfacet
  facet normal -0.671611 0 0.740904
    outer loop
      vertex 12.858 4.5 22.4706
      vertex 12.8325 5 22.4475
      vertex 12.8325 4.5 22.4475
    endloop
  endfacet
  facet normal -0.7359 0 0.67709
    outer loop
      vertex 12.8127 4.5 22.4259
      vertex 12.8325 5 22.4475
      vertex 12.8127 5 22.4259
    endloop
  endfacet
  facet normal -0.7359 0 0.67709
    outer loop
      vertex 12.8325 5 22.4475
      vertex 12.8127 4.5 22.4259
      vertex 12.8325 4.5 22.4475
    endloop
  endfacet
  facet normal -0.763796 0 0.645458
    outer loop
      vertex 3.20944 4.5 11.062
      vertex 12.8127 5 22.4259
      vertex 3.20944 5 11.062
    endloop
  endfacet
  facet normal -0.763796 0 0.645458
    outer loop
      vertex 12.8127 5 22.4259
      vertex 3.20944 4.5 11.062
      vertex 12.8127 4.5 22.4259
    endloop
  endfacet
  facet normal -0.8034 0 0.59544
    outer loop
      vertex 3.18899 4.5 11.0344
      vertex 3.20944 5 11.062
      vertex 3.18899 5 11.0344
    endloop
  endfacet
  facet normal -0.8034 0 0.59544
    outer loop
      vertex 3.20944 5 11.062
      vertex 3.18899 4.5 11.0344
      vertex 3.20944 4.5 11.062
    endloop
  endfacet
  facet normal -0.85761 0 0.5143
    outer loop
      vertex 3.17132 4.5 11.005
      vertex 3.18899 5 11.0344
      vertex 3.17132 5 11.005
    endloop
  endfacet
  facet normal -0.85761 0 0.5143
    outer loop
      vertex 3.18899 5 11.0344
      vertex 3.17132 4.5 11.005
      vertex 3.18899 4.5 11.0344
    endloop
  endfacet
  facet normal -0.904072 0 0.42738
    outer loop
      vertex 3.15664 4.5 10.9739
      vertex 3.17132 5 11.005
      vertex 3.15664 5 10.9739
    endloop
  endfacet
  facet normal -0.904072 0 0.42738
    outer loop
      vertex 3.17132 5 11.005
      vertex 3.15664 4.5 10.9739
      vertex 3.17132 4.5 11.005
    endloop
  endfacet
  facet normal -0.941571 0 0.336815
    outer loop
      vertex 3.14508 4.5 10.9416
      vertex 3.15664 5 10.9739
      vertex 3.14508 5 10.9416
    endloop
  endfacet
  facet normal -0.941571 0 0.336815
    outer loop
      vertex 3.15664 5 10.9739
      vertex 3.14508 4.5 10.9416
      vertex 3.15664 4.5 10.9739
    endloop
  endfacet
  facet normal -0.970038 0 0.242954
    outer loop
      vertex 3.13673 4.5 10.9083
      vertex 3.14508 5 10.9416
      vertex 3.13673 5 10.9083
    endloop
  endfacet
  facet normal -0.970038 0 0.242954
    outer loop
      vertex 3.14508 5 10.9416
      vertex 3.13673 4.5 10.9083
      vertex 3.14508 4.5 10.9416
    endloop
  endfacet
  facet normal -0.989125 0 0.14708
    outer loop
      vertex 3.13168 4.5 10.8743
      vertex 3.13673 5 10.9083
      vertex 3.13168 5 10.8743
    endloop
  endfacet
  facet normal -0.989125 0 0.14708
    outer loop
      vertex 3.13673 5 10.9083
      vertex 3.13168 4.5 10.8743
      vertex 3.13673 4.5 10.9083
    endloop
  endfacet
  facet normal -0.998805 0 0.0488739
    outer loop
      vertex 3.13 4.5 10.84
      vertex 3.13168 5 10.8743
      vertex 3.13 5 10.84
    endloop
  endfacet
  facet normal -0.998805 0 0.0488739
    outer loop
      vertex 3.13168 5 10.8743
      vertex 3.13 4.5 10.84
      vertex 3.13168 4.5 10.8743
    endloop
  endfacet
  facet normal -1 0 0
    outer loop
      vertex 3.13 4.5 3.63998
      vertex 3.13 5 10.84
      vertex 3.13 5 3.63998
    endloop
  endfacet
  facet normal -1 -0 0
    outer loop
      vertex 3.13 5 10.84
      vertex 3.13 4.5 3.63998
      vertex 3.13 4.5 10.84
    endloop
  endfacet
  facet normal 1 -0 0
    outer loop
      vertex 3.82998 4.5 7.71188
      vertex 3.82998 5 3.63998
      vertex 3.82998 5 7.71188
    endloop
  endfacet
  facet normal 1 0 0
    outer loop
      vertex 3.82998 5 3.63998
      vertex 3.82998 4.5 7.71188
      vertex 3.82998 4.5 3.63998
    endloop
  endfacet
  facet normal 0.763795 0 -0.645459
    outer loop
      vertex 12.73 4.5 21.2436
      vertex 8.62999 5 16.3919
      vertex 12.73 5 21.2436
    endloop
  endfacet
  facet normal 0.763795 0 -0.645459
    outer loop
      vertex 8.62999 5 16.3919
      vertex 12.73 4.5 21.2436
      vertex 8.62999 4.5 16.3919
    endloop
  endfacet
  facet normal -1 0 0
    outer loop
      vertex 12.73 4.5 19.3281
      vertex 12.73 5 21.2436
      vertex 12.73 5 19.3281
    endloop
  endfacet
  facet normal -1 -0 0
    outer loop
      vertex 12.73 5 21.2436
      vertex 12.73 4.5 19.3281
      vertex 12.73 4.5 21.2436
    endloop
  endfacet
  facet normal -0.763794 0 0.64546
    outer loop
      vertex 8.62999 4.5 14.4764
      vertex 12.73 5 19.3281
      vertex 8.62999 5 14.4764
    endloop
  endfacet
  facet normal -0.763794 0 0.64546
    outer loop
      vertex 12.73 5 19.3281
      vertex 8.62999 4.5 14.4764
      vertex 12.73 4.5 19.3281
    endloop
  endfacet
  facet normal 1 -0 0
    outer loop
      vertex 8.62999 4.5 16.3919
      vertex 8.62999 5 14.4764
      vertex 8.62999 5 16.3919
    endloop
  endfacet
  facet normal 1 0 0
    outer loop
      vertex 8.62999 5 14.4764
      vertex 8.62999 4.5 16.3919
      vertex 8.62999 4.5 14.4764
    endloop
  endfacet
  facet normal 0.763795 0 -0.645459
    outer loop
      vertex 7.93001 4.5 15.5636
      vertex 3.82998 5 10.7119
      vertex 7.93001 5 15.5636
    endloop
  endfacet
  facet normal 0.763795 0 -0.645459
    outer loop
      vertex 3.82998 5 10.7119
      vertex 7.93001 4.5 15.5636
      vertex 3.82998 4.5 10.7119
    endloop
  endfacet
  facet normal -1 0 0
    outer loop
      vertex 7.93001 4.5 13.6481
      vertex 7.93001 5 15.5636
      vertex 7.93001 5 13.6481
    endloop
  endfacet
  facet normal -1 -0 0
    outer loop
      vertex 7.93001 5 15.5636
      vertex 7.93001 4.5 13.6481
      vertex 7.93001 4.5 15.5636
    endloop
  endfacet
  facet normal -0.763794 0 0.64546
    outer loop
      vertex 3.82998 4.5 8.7964
      vertex 7.93001 5 13.6481
      vertex 3.82998 5 8.7964
    endloop
  endfacet
  facet normal -0.763794 0 0.64546
    outer loop
      vertex 7.93001 5 13.6481
      vertex 3.82998 4.5 8.7964
      vertex 7.93001 4.5 13.6481
    endloop
  endfacet
  facet normal 1 -0 0
    outer loop
      vertex 3.82998 4.5 10.7119
      vertex 3.82998 5 8.7964
      vertex 3.82998 5 10.7119
    endloop
  endfacet
  facet normal 1 0 0
    outer loop
      vertex 3.82998 5 8.7964
      vertex 3.82998 4.5 10.7119
      vertex 3.82998 4.5 8.7964
    endloop
  endfacet
endsolid OpenSCAD_Model
