solid OpenSCAD_Model
  facet normal 0 1 0
    outer loop
      vertex 2.42998 4 2.63998
      vertex 3.38998 4 1.82684
      vertex 1.68999 4 1.84
    endloop
  endfacet
  facet normal 0 1 -0
    outer loop
      vertex 1.99998 4 0
      vertex 1.68999 4 1.84
      vertex 3.38998 4 1.82684
    endloop
  endfacet
  facet normal 0 1 0
    outer loop
      vertex 1.68999 4 1.84
      vertex 1.99998 4 0
      vertex 1.68999 4 0
    endloop
  endfacet
  facet normal 0 1 -0
    outer loop
      vertex 4.78998 4 3.66684
      vertex 3.08998 4 3.67999
      vertex 4.78998 4 3.67999
    endloop
  endfacet
  facet normal 0 1 0
    outer loop
      vertex 4.78998 4 3.66684
      vertex 3.08998 4 2.63998
      vertex 3.08998 4 3.67999
    endloop
  endfacet
  facet normal 0 1 0
    outer loop
      vertex 3.38998 4 1.84
      vertex 2.42998 4 2.63998
      vertex 3.08998 4 2.63998
    endloop
  endfacet
  facet normal 0 1 0
    outer loop
      vertex 2.42998 4 2.63998
      vertex 1.68999 4 1.84
      vertex 1.73 4 2.63998
    endloop
  endfacet
  facet normal 0 1 -0
    outer loop
      vertex 3.39998 4 1.84
      vertex 3.08998 4 2.63998
      vertex 4.78998 4 3.66684
    endloop
  endfacet
  facet normal 0 1 -0
    outer loop
      vertex 3.38998 4 1.84
      vertex 3.08998 4 2.63998
      vertex 3.39998 4 1.84
    endloop
  endfacet
  facet normal 0 1 -0
    outer loop
      vertex 3.38998 4 1.82684
      vertex 2.42998 4 2.63998
      vertex 3.38998 4 1.84
    endloop
  endfacet
  facet normal 0 1 0
    outer loop
      vertex 1.73 4 2.63998
      vertex 1.68999 4 1.84
      vertex 1.39999 4 2.63998
    endloop
  endfacet
  facet normal 0 1 0
    outer loop
      vertex 1.39999 4 2.63998
      vertex 1.68999 4 1.84
      vertex 1.39999 4 1.84
    endloop
  endfacet
  facet normal 0 1 0
    outer loop
      vertex 5.22999 4 6.31998
      vertex 6.18999 4 5.50684
      vertex 4.48999 4 5.51999
    endloop
  endfacet
  facet normal 0 1 0
    outer loop
      vertex 6.18999 4 5.50684
      vertex 4.48999 4 4.47998
      vertex 4.48999 4 5.51999
    endloop
  endfacet
  facet normal 0 1 -0
    outer loop
      vertex 4.79999 4 3.67999
      vertex 4.48999 4 4.47998
      vertex 6.18999 4 5.50684
    endloop
  endfacet
  facet normal 0 1 -0
    outer loop
      vertex 4.78998 4 3.67999
      vertex 4.48999 4 4.47998
      vertex 4.79999 4 3.67999
    endloop
  endfacet
  facet normal 0 1 0
    outer loop
      vertex 3.08998 4 3.67999
      vertex 4.48999 4 4.47998
      vertex 4.78998 4 3.67999
    endloop
  endfacet
  facet normal 0 1 0
    outer loop
      vertex 4.48999 4 4.47998
      vertex 3.08998 4 3.67999
      vertex 2.79999 4 4.47998
    endloop
  endfacet
  facet normal 0 1 0
    outer loop
      vertex 2.79999 4 4.47998
      vertex 3.08998 4 3.67999
      vertex 2.79999 4 3.67999
    endloop
  endfacet
  facet normal 0 1 -0
    outer loop
      vertex 7.58998 4 7.34683
      vertex 5.88998 4 7.35999
      vertex 7.58998 4 7.36
    endloop
  endfacet
  facet normal 0 1 0
    outer loop
      vertex 7.58998 4 7.34683
      vertex 5.88998 4 6.31998
      vertex 5.88998 4 7.35999
    endloop
  endfacet
  facet normal 0 1 0
    outer loop
      vertex 6.18999 4 5.51999
      vertex 5.22999 4 6.31998
      vertex 5.88998 4 6.31998
    endloop
  endfacet
  facet normal 0 1 0
    outer loop
      vertex 5.22999 4 6.31998
      vertex 4.48999 4 5.51999
      vertex 4.53001 4 6.31998
    endloop
  endfacet
  facet normal 0 1 -0
    outer loop
      vertex 6.19998 4 5.51999
      vertex 5.88998 4 6.31998
      vertex 7.58998 4 7.34683
    endloop
  endfacet
  facet normal 0 1 -0
    outer loop
      vertex 6.18999 4 5.51999
      vertex 5.88998 4 6.31998
      vertex 6.19998 4 5.51999
    endloop
  endfacet
  facet normal 0 1 -0
    outer loop
      vertex 6.18999 4 5.50684
      vertex 5.22999 4 6.31998
      vertex 6.18999 4 5.51999
    endloop
  endfacet
  facet normal 0 1 0
    outer loop
      vertex 4.53001 4 6.31998
      vertex 4.48999 4 5.51999
      vertex 4.2 4 6.31998
    endloop
  endfacet
  facet normal 0 1 0
    outer loop
      vertex 4.2 4 6.31998
      vertex 4.48999 4 5.51999
      vertex 4.2 4 5.51999
    endloop
  endfacet
  facet normal 0 1 -0
    outer loop
      vertex 8.98999 4 9.18684
      vertex 8.7 4 9.20999
      vertex 8.98999 4 9.20999
    endloop
  endfacet
  facet normal 0 1 0
    outer loop
      vertex 7.59999 4 7.36
      vertex 8.7 4 9.20999
      vertex 8.98999 4 9.18684
    endloop
  endfacet
  facet normal 0 1 0
    outer loop
      vertex 8.7 4 9.20999
      vertex 7.28999 4 8.15997
      vertex 7.28999 4 9.2
    endloop
  endfacet
  facet normal 0 1 0
    outer loop
      vertex 8.7 4 9.20999
      vertex 7.59999 4 7.36
      vertex 7.28999 4 8.15997
    endloop
  endfacet
  facet normal 0 1 -0
    outer loop
      vertex 7.58998 4 7.36
      vertex 7.28999 4 8.15997
      vertex 7.59999 4 7.36
    endloop
  endfacet
  facet normal 0 1 0
    outer loop
      vertex 5.88998 4 7.35999
      vertex 7.28999 4 8.15997
      vertex 7.58998 4 7.36
    endloop
  endfacet
  facet normal 0 1 0
    outer loop
      vertex 7.28999 4 8.15997
      vertex 5.88998 4 7.35999
      vertex 5.59999 4 8.15997
    endloop
  endfacet
  facet normal 0 1 0
    outer loop
      vertex 5.59999 4 8.15997
      vertex 5.88998 4 7.35999
      vertex 5.59999 4 7.35999
    endloop
  endfacet
  facet normal 0 1 -0
    outer loop
      vertex 5.22999 4 6.31998
      vertex 4.53001 4 9.48199
      vertex 5.22999 4 10.402
    endloop
  endfacet
  facet normal 0 1 0
    outer loop
      vertex 4.53001 4 9.48199
      vertex 5.22999 4 6.31998
      vertex 4.53001 4 6.31998
    endloop
  endfacet
  facet normal 0 1 -0
    outer loop
      vertex 8.7 4 9.20999
      vertex 8.02999 4 9.99998
      vertex 8.7 4 9.99998
    endloop
  endfacet
  facet normal 0 1 0
    outer loop
      vertex 7.28999 4 9.2
      vertex 8.02999 4 9.99998
      vertex 8.7 4 9.20999
    endloop
  endfacet
  facet normal 0 1 0
    outer loop
      vertex 8.02999 4 9.99998
      vertex 7.28999 4 9.2
      vertex 7.33001 4 9.99998
    endloop
  endfacet
  facet normal 0 1 0
    outer loop
      vertex 7.33001 4 9.99998
      vertex 7.28999 4 9.2
      vertex 7 4 9.99998
    endloop
  endfacet
  facet normal 0 1 0
    outer loop
      vertex 7 4 9.99998
      vertex 7.28999 4 9.2
      vertex 7 4 9.2
    endloop
  endfacet
  facet normal 0 1 -0
    outer loop
      vertex 5.22999 4 11.558
      vertex 4.53001 4 12.482
      vertex 5.22999 4 13.402
    endloop
  endfacet
  facet normal 0 1 0
    outer loop
      vertex 4.53001 4 12.482
      vertex 5.22999 4 11.558
      vertex 4.53001 4 10.638
    endloop
  endfacet
  facet normal 0 1 0
    outer loop
      vertex 8.02999 4 17.2
      vertex 7.33001 4 14.318
      vertex 7.33001 4 16.162
    endloop
  endfacet
  facet normal 0 1 0
    outer loop
      vertex 8.02999 4 17.2
      vertex 7.33001 4 13.162
      vertex 7.33001 4 14.318
    endloop
  endfacet
  facet normal 0 1 -0
    outer loop
      vertex 8.02999 4 9.99998
      vertex 7.33001 4 13.162
      vertex 8.02999 4 17.2
    endloop
  endfacet
  facet normal 0 1 0
    outer loop
      vertex 7.33001 4 13.162
      vertex 8.02999 4 9.99998
      vertex 7.33001 4 9.99998
    endloop
  endfacet
  facet normal 0 1 0
    outer loop
      vertex 7.7143 4 17.5483
      vertex 7.6457 4 17.5483
      vertex 7.68 4 17.55
    endloop
  endfacet
  facet normal 0 1 0
    outer loop
      vertex 7.74827 4 17.5433
      vertex 7.6457 4 17.5483
      vertex 7.7143 4 17.5483
    endloop
  endfacet
  facet normal 0 1 0
    outer loop
      vertex 7.74827 4 17.5433
      vertex 7.61173 4 17.5433
      vertex 7.6457 4 17.5483
    endloop
  endfacet
  facet normal 0 1 0
    outer loop
      vertex 7.78159 4 17.5349
      vertex 7.61173 4 17.5433
      vertex 7.74827 4 17.5433
    endloop
  endfacet
  facet normal 0 1 0
    outer loop
      vertex 7.78159 4 17.5349
      vertex 7.57841 4 17.5349
      vertex 7.61173 4 17.5433
    endloop
  endfacet
  facet normal 0 1 0
    outer loop
      vertex 7.81393 4 17.5233
      vertex 7.57841 4 17.5349
      vertex 7.78159 4 17.5349
    endloop
  endfacet
  facet normal 0 1 0
    outer loop
      vertex 7.81393 4 17.5233
      vertex 7.54607 4 17.5233
      vertex 7.57841 4 17.5349
    endloop
  endfacet
  facet normal 0 1 0
    outer loop
      vertex 7.84498 4 17.5087
      vertex 7.54607 4 17.5233
      vertex 7.81393 4 17.5233
    endloop
  endfacet
  facet normal 0 1 0
    outer loop
      vertex 7.84498 4 17.5087
      vertex 7.51502 4 17.5087
      vertex 7.54607 4 17.5233
    endloop
  endfacet
  facet normal 0 1 0
    outer loop
      vertex 7.87444 4 17.491
      vertex 7.51502 4 17.5087
      vertex 7.84498 4 17.5087
    endloop
  endfacet
  facet normal 0 1 0
    outer loop
      vertex 7.87444 4 17.491
      vertex 7.48556 4 17.491
      vertex 7.51502 4 17.5087
    endloop
  endfacet
  facet normal 0 1 0
    outer loop
      vertex 7.90203 4 17.4706
      vertex 7.48556 4 17.491
      vertex 7.87444 4 17.491
    endloop
  endfacet
  facet normal 0 1 0
    outer loop
      vertex 7.90203 4 17.4706
      vertex 7.45797 4 17.4706
      vertex 7.48556 4 17.491
    endloop
  endfacet
  facet normal 0 1 0
    outer loop
      vertex 7.92748 4 17.4475
      vertex 7.45797 4 17.4706
      vertex 7.90203 4 17.4706
    endloop
  endfacet
  facet normal 0 1 0
    outer loop
      vertex 7.92748 4 17.4475
      vertex 7.43252 4 17.4475
      vertex 7.45797 4 17.4706
    endloop
  endfacet
  facet normal 0 1 0
    outer loop
      vertex 7.95055 4 17.422
      vertex 7.43252 4 17.4475
      vertex 7.92748 4 17.4475
    endloop
  endfacet
  facet normal 0 1 0
    outer loop
      vertex 7.95055 4 17.422
      vertex 7.40145 4 17.4119
      vertex 7.43252 4 17.4475
    endloop
  endfacet
  facet normal 0 1 0
    outer loop
      vertex 7.971 4 17.3944
      vertex 7.40145 4 17.4119
      vertex 7.95055 4 17.422
    endloop
  endfacet
  facet normal 0 1 0
    outer loop
      vertex 7.98867 4 17.365
      vertex 7.40145 4 17.4119
      vertex 7.971 4 17.3944
    endloop
  endfacet
  facet normal 0 1 0
    outer loop
      vertex 8.00335 4 17.3339
      vertex 7.40145 4 17.4119
      vertex 7.98867 4 17.365
    endloop
  endfacet
  facet normal 0 1 0
    outer loop
      vertex 8.01491 4 17.3016
      vertex 7.40145 4 17.4119
      vertex 8.00335 4 17.3339
    endloop
  endfacet
  facet normal 0 1 0
    outer loop
      vertex 8.02326 4 17.2683
      vertex 7.40145 4 17.4119
      vertex 8.01491 4 17.3016
    endloop
  endfacet
  facet normal 0 1 0
    outer loop
      vertex 8.02831 4 17.2343
      vertex 7.40145 4 17.4119
      vertex 8.02326 4 17.2683
    endloop
  endfacet
  facet normal 0 1 0
    outer loop
      vertex 8.02999 4 17.2
      vertex 7.40145 4 17.4119
      vertex 8.02831 4 17.2343
    endloop
  endfacet
  facet normal 0 1 0
    outer loop
      vertex 7.33001 4 16.162
      vertex 7.40145 4 17.4119
      vertex 8.02999 4 17.2
    endloop
  endfacet
  facet normal 0 1 0
    outer loop
      vertex 5.22999 4 13.402
      vertex 7.40145 4 17.4119
      vertex 7.33001 4 16.162
    endloop
  endfacet
  facet normal 0 1 0
    outer loop
      vertex 1.78899 4 10.0344
      vertex 5.22999 4 13.402
      vertex 4.53001 4 12.482
    endloop
  endfacet
  facet normal 0 1 -0
    outer loop
      vertex 5.22999 4 13.402
      vertex 1.78899 4 10.0344
      vertex 7.40145 4 17.4119
    endloop
  endfacet
  facet normal 0 1 -0
    outer loop
      vertex 2.42998 4 9.72198
      vertex 1.78899 4 10.0344
      vertex 4.53001 4 12.482
    endloop
  endfacet
  facet normal 0 1 0
    outer loop
      vertex 1.78899 4 10.0344
      vertex 2.42998 4 9.72198
      vertex 1.77132 4 10.005
    endloop
  endfacet
  facet normal 0 1 0
    outer loop
      vertex 1.77132 4 10.005
      vertex 2.42998 4 9.72198
      vertex 1.75664 4 9.97392
    endloop
  endfacet
  facet normal 0 1 0
    outer loop
      vertex 1.75664 4 9.97392
      vertex 2.42998 4 9.72198
      vertex 1.74508 4 9.94159
    endloop
  endfacet
  facet normal 0 1 0
    outer loop
      vertex 1.74508 4 9.94159
      vertex 2.42998 4 9.72198
      vertex 1.73673 4 9.90826
    endloop
  endfacet
  facet normal 0 1 0
    outer loop
      vertex 1.73673 4 9.90826
      vertex 2.42998 4 9.72198
      vertex 1.73168 4 9.8743
    endloop
  endfacet
  facet normal 0 1 0
    outer loop
      vertex 1.73168 4 9.8743
      vertex 2.42998 4 9.72198
      vertex 1.73 4 9.84
    endloop
  endfacet
  facet normal 0 1 -0
    outer loop
      vertex 2.42998 4 7.87801
      vertex 1.73 4 9.84
      vertex 2.42998 4 9.72198
    endloop
  endfacet
  facet normal 0 1 -0
    outer loop
      vertex 2.42998 4 6.72198
      vertex 1.73 4 9.84
      vertex 2.42998 4 7.87801
    endloop
  endfacet
  facet normal 0 1 0
    outer loop
      vertex 1.73 4 2.63998
      vertex 2.42998 4 6.72198
      vertex 2.42998 4 2.63998
    endloop
  endfacet
  facet normal 0 1 0
    outer loop
      vertex 2.42998 4 6.72198
      vertex 1.73 4 2.63998
      vertex 1.73 4 9.84
    endloop
  endfacet
  facet normal 0 1 -0
    outer loop
      vertex 7.33001 4 13.162
      vertex 5.22999 4 11.558
      vertex 7.33001 4 14.318
    endloop
  endfacet
  facet normal 0 1 0
    outer loop
      vertex 5.22999 4 10.402
      vertex 5.22999 4 11.558
      vertex 7.33001 4 13.162
    endloop
  endfacet
  facet normal 0 1 0
    outer loop
      vertex 5.22999 4 11.558
      vertex 5.22999 4 10.402
      vertex 4.53001 4 10.638
    endloop
  endfacet
  facet normal 0 1 0
    outer loop
      vertex 4.53001 4 9.48199
      vertex 4.53001 4 10.638
      vertex 5.22999 4 10.402
    endloop
  endfacet
  facet normal 0 1 -0
    outer loop
      vertex 4.53001 4 9.48199
      vertex 2.42998 4 7.87801
      vertex 4.53001 4 10.638
    endloop
  endfacet
  facet normal -0 1 0
    outer loop
      vertex 2.42998 4 7.87801
      vertex 4.53001 4 9.48199
      vertex 2.42998 4 6.72198
    endloop
  endfacet
  facet normal 0 -1 0
    outer loop
      vertex 1.68999 -4 1.84
      vertex 3.38998 -4 1.82684
      vertex 3.38998 -4 1.84
    endloop
  endfacet
  facet normal 0 -1 0
    outer loop
      vertex 1.99998 -4 0
      vertex 1.68999 -4 1.84
      vertex 1.68999 -4 0
    endloop
  endfacet
  facet normal 0 -1 0
    outer loop
      vertex 1.68999 -4 1.84
      vertex 1.99998 -4 0
      vertex 3.38998 -4 1.82684
    endloop
  endfacet
  facet normal 0 -1 0
    outer loop
      vertex 1.68999 -4 1.84
      vertex 1.39999 -4 2.63998
      vertex 1.39999 -4 1.84
    endloop
  endfacet
  facet normal 0 -1 0
    outer loop
      vertex 1.39999 -4 2.63998
      vertex 1.68999 -4 1.84
      vertex 3.08998 -4 2.63998
    endloop
  endfacet
  facet normal 0 -1 0
    outer loop
      vertex 3.38998 -4 1.84
      vertex 3.08998 -4 2.63998
      vertex 1.68999 -4 1.84
    endloop
  endfacet
  facet normal 0 -1 0
    outer loop
      vertex 3.08998 -4 2.63998
      vertex 3.38998 -4 1.84
      vertex 3.39998 -4 1.84
    endloop
  endfacet
  facet normal 0 -1 0
    outer loop
      vertex 3.08998 -4 3.67999
      vertex 2.79999 -4 4.47998
      vertex 2.79999 -4 3.67999
    endloop
  endfacet
  facet normal 0 -1 0
    outer loop
      vertex 4.48999 -4 5.51999
      vertex 4.2 -4 6.31998
      vertex 4.2 -4 5.51999
    endloop
  endfacet
  facet normal 0 -1 0
    outer loop
      vertex 5.88998 -4 7.35999
      vertex 7.28999 -4 8.15997
      vertex 5.59999 -4 8.15997
    endloop
  endfacet
  facet normal 0 -1 0
    outer loop
      vertex 5.88998 -4 7.35999
      vertex 5.59999 -4 8.15997
      vertex 5.59999 -4 7.35999
    endloop
  endfacet
  facet normal 0 -1 -0
    outer loop
      vertex 7.28999 -4 8.15997
      vertex 5.88998 -4 7.35999
      vertex 7.58998 -4 7.36
    endloop
  endfacet
  facet normal 0 -1 0
    outer loop
      vertex 5.88998 -4 7.35999
      vertex 7.58998 -4 7.34683
      vertex 7.58998 -4 7.36
    endloop
  endfacet
  facet normal 0 -1 0
    outer loop
      vertex 5.88998 -4 6.31998
      vertex 7.58998 -4 7.34683
      vertex 5.88998 -4 7.35999
    endloop
  endfacet
  facet normal 0 -1 0
    outer loop
      vertex 4.2 -4 6.31998
      vertex 4.48999 -4 5.51999
      vertex 5.88998 -4 6.31998
    endloop
  endfacet
  facet normal 0 -1 0
    outer loop
      vertex 6.18999 -4 5.51999
      vertex 5.88998 -4 6.31998
      vertex 4.48999 -4 5.51999
    endloop
  endfacet
  facet normal 0 -1 0
    outer loop
      vertex 6.19998 -4 5.51999
      vertex 5.88998 -4 6.31998
      vertex 6.18999 -4 5.51999
    endloop
  endfacet
  facet normal 0 -1 0
    outer loop
      vertex 5.88998 -4 6.31998
      vertex 6.19998 -4 5.51999
      vertex 7.58998 -4 7.34683
    endloop
  endfacet
  facet normal 0 -1 0
    outer loop
      vertex 7.28999 -4 9.2
      vertex 8.7 -4 9.99998
      vertex 7 -4 9.99998
    endloop
  endfacet
  facet normal 0 -1 0
    outer loop
      vertex 7.28999 -4 9.2
      vertex 7 -4 9.99998
      vertex 7 -4 9.2
    endloop
  endfacet
  facet normal 0 -1 -0
    outer loop
      vertex 8.7 -4 9.99998
      vertex 7.28999 -4 9.2
      vertex 8.7 -4 9.20999
    endloop
  endfacet
  facet normal 0 -1 0
    outer loop
      vertex 7.28999 -4 8.15997
      vertex 8.7 -4 9.20999
      vertex 7.28999 -4 9.2
    endloop
  endfacet
  facet normal 0 -1 0
    outer loop
      vertex 8.7 -4 9.20999
      vertex 8.98999 -4 9.18684
      vertex 8.98999 -4 9.20999
    endloop
  endfacet
  facet normal 0 -1 0
    outer loop
      vertex 7.59999 -4 7.36
      vertex 8.7 -4 9.20999
      vertex 7.28999 -4 8.15997
    endloop
  endfacet
  facet normal 0 -1 0
    outer loop
      vertex 7.59999 -4 7.36
      vertex 7.28999 -4 8.15997
      vertex 7.58998 -4 7.36
    endloop
  endfacet
  facet normal 0 -1 -0
    outer loop
      vertex 8.7 -4 9.20999
      vertex 7.59999 -4 7.36
      vertex 8.98999 -4 9.18684
    endloop
  endfacet
  facet normal 0 -1 0
    outer loop
      vertex 4.48999 -4 5.51999
      vertex 6.18999 -4 5.50684
      vertex 6.18999 -4 5.51999
    endloop
  endfacet
  facet normal 0 -1 0
    outer loop
      vertex 4.48999 -4 4.47998
      vertex 6.18999 -4 5.50684
      vertex 4.48999 -4 5.51999
    endloop
  endfacet
  facet normal 0 -1 0
    outer loop
      vertex 2.79999 -4 4.47998
      vertex 3.08998 -4 3.67999
      vertex 4.48999 -4 4.47998
    endloop
  endfacet
  facet normal 0 -1 0
    outer loop
      vertex 4.78998 -4 3.67999
      vertex 4.48999 -4 4.47998
      vertex 3.08998 -4 3.67999
    endloop
  endfacet
  facet normal 0 -1 0
    outer loop
      vertex 4.79999 -4 3.67999
      vertex 4.48999 -4 4.47998
      vertex 4.78998 -4 3.67999
    endloop
  endfacet
  facet normal 0 -1 0
    outer loop
      vertex 4.48999 -4 4.47998
      vertex 4.79999 -4 3.67999
      vertex 6.18999 -4 5.50684
    endloop
  endfacet
  facet normal 0 -1 0
    outer loop
      vertex 3.08998 -4 3.67999
      vertex 4.78998 -4 3.66684
      vertex 4.78998 -4 3.67999
    endloop
  endfacet
  facet normal 7.09484e-09 -1 9.16987e-07
    outer loop
      vertex 4.78998 -4 3.66684
      vertex 3.08998 -4 3.67999
      vertex 3.08998 -4 2.63998
    endloop
  endfacet
  facet normal 4.54584e-07 -1 1.76153e-07
    outer loop
      vertex 3.39998 -4 1.84
      vertex 4.78998 -4 3.66684
      vertex 3.08998 -4 2.63998
    endloop
  endfacet
  facet normal 1 0 0
    outer loop
      vertex 3.38998 -4 1.84
      vertex 3.38998 4 1.82684
      vertex 3.38998 4 1.84
    endloop
  endfacet
  facet normal 1 0 0
    outer loop
      vertex 3.38998 4 1.82684
      vertex 3.38998 -4 1.84
      vertex 3.38998 -4 1.82684
    endloop
  endfacet
  facet normal 0 -1.19209e-07 -1
    outer loop
      vertex 3.38998 -4 1.84
      vertex 3.39998 4 1.84
      vertex 3.39998 -4 1.84
    endloop
  endfacet
  facet normal -0 -1.19209e-07 -1
    outer loop
      vertex 3.39998 4 1.84
      vertex 3.38998 -4 1.84
      vertex 3.38998 4 1.84
    endloop
  endfacet
  facet normal 0.795827 -7.21842e-08 -0.605525
    outer loop
      vertex 3.39998 4 1.84
      vertex 4.78998 4 3.66684
      vertex 3.39998 -4 1.84
    endloop
  endfacet
  facet normal 0.795827 -7.21842e-08 -0.605525
    outer loop
      vertex 4.78998 4 3.66684
      vertex 4.78998 -4 3.66684
      vertex 3.39998 -4 1.84
    endloop
  endfacet
  facet normal 1 0 0
    outer loop
      vertex 4.78998 -4 3.67999
      vertex 4.78998 4 3.66684
      vertex 4.78998 4 3.67999
    endloop
  endfacet
  facet normal 1 0 0
    outer loop
      vertex 4.78998 4 3.66684
      vertex 4.78998 -4 3.67999
      vertex 4.78998 -4 3.66684
    endloop
  endfacet
  facet normal 0 -1.19209e-07 -1
    outer loop
      vertex 4.78998 -4 3.67999
      vertex 4.79999 4 3.67999
      vertex 4.79999 -4 3.67999
    endloop
  endfacet
  facet normal -0 -1.19209e-07 -1
    outer loop
      vertex 4.79999 4 3.67999
      vertex 4.78998 -4 3.67999
      vertex 4.78998 4 3.67999
    endloop
  endfacet
  facet normal 0.795827 -7.21841e-08 -0.605524
    outer loop
      vertex 4.79999 4 3.67999
      vertex 6.18999 4 5.50684
      vertex 4.79999 -4 3.67999
    endloop
  endfacet
  facet normal 0.795827 0 -0.605525
    outer loop
      vertex 6.18999 4 5.50684
      vertex 6.18999 -4 5.50684
      vertex 4.79999 -4 3.67999
    endloop
  endfacet
  facet normal 1 -0 0
    outer loop
      vertex 6.18999 -4 5.51999
      vertex 6.18999 4 5.50684
      vertex 6.18999 4 5.51999
    endloop
  endfacet
  facet normal 1 0 0
    outer loop
      vertex 6.18999 4 5.50684
      vertex 6.18999 -4 5.51999
      vertex 6.18999 -4 5.50684
    endloop
  endfacet
  facet normal 0 0 -1
    outer loop
      vertex 6.18999 -4 5.51999
      vertex 6.19998 4 5.51999
      vertex 6.19998 -4 5.51999
    endloop
  endfacet
  facet normal -0 0 -1
    outer loop
      vertex 6.19998 4 5.51999
      vertex 6.18999 -4 5.51999
      vertex 6.18999 4 5.51999
    endloop
  endfacet
  facet normal 0.795827 0 -0.605525
    outer loop
      vertex 7.58998 -4 7.34683
      vertex 6.19998 4 5.51999
      vertex 7.58998 4 7.34683
    endloop
  endfacet
  facet normal 0.795827 0 -0.605525
    outer loop
      vertex 6.19998 4 5.51999
      vertex 7.58998 -4 7.34683
      vertex 6.19998 -4 5.51999
    endloop
  endfacet
  facet normal 1 -0 0
    outer loop
      vertex 7.58998 -4 7.36
      vertex 7.58998 4 7.34683
      vertex 7.58998 4 7.36
    endloop
  endfacet
  facet normal 1 0 0
    outer loop
      vertex 7.58998 4 7.34683
      vertex 7.58998 -4 7.36
      vertex 7.58998 -4 7.34683
    endloop
  endfacet
  facet normal 0 0 -1
    outer loop
      vertex 7.58998 -4 7.36
      vertex 7.59999 4 7.36
      vertex 7.59999 -4 7.36
    endloop
  endfacet
  facet normal -0 0 -1
    outer loop
      vertex 7.59999 4 7.36
      vertex 7.58998 -4 7.36
      vertex 7.58998 4 7.36
    endloop
  endfacet
  facet normal 0.795827 0 -0.605525
    outer loop
      vertex 8.98999 -4 9.18684
      vertex 7.59999 4 7.36
      vertex 8.98999 4 9.18684
    endloop
  endfacet
  facet normal 0.795827 0 -0.605525
    outer loop
      vertex 7.59999 4 7.36
      vertex 8.98999 -4 9.18684
      vertex 7.59999 -4 7.36
    endloop
  endfacet
  facet normal 1 -0 0
    outer loop
      vertex 8.98999 -4 9.20999
      vertex 8.98999 4 9.18684
      vertex 8.98999 4 9.20999
    endloop
  endfacet
  facet normal 1 0 0
    outer loop
      vertex 8.98999 4 9.18684
      vertex 8.98999 -4 9.20999
      vertex 8.98999 -4 9.18684
    endloop
  endfacet
  facet normal -0 0 1
    outer loop
      vertex 8.7 4 9.20999
      vertex 8.98999 -4 9.20999
      vertex 8.98999 4 9.20999
    endloop
  endfacet
  facet normal 0 0 1
    outer loop
      vertex 8.98999 -4 9.20999
      vertex 8.7 4 9.20999
      vertex 8.7 -4 9.20999
    endloop
  endfacet
  facet normal 1 -0 0
    outer loop
      vertex 8.7 -4 9.99998
      vertex 8.7 4 9.20999
      vertex 8.7 4 9.99998
    endloop
  endfacet
  facet normal 1 0 0
    outer loop
      vertex 8.7 4 9.20999
      vertex 8.7 -4 9.99998
      vertex 8.7 -4 9.20999
    endloop
  endfacet
  facet normal 0 0 1
    outer loop
      vertex 7.33001 4 9.99998
      vertex 7 4 9.99998
      vertex 7.33001 3.5 9.99998
    endloop
  endfacet
  facet normal 0 0 1
    outer loop
      vertex 8.02999 3.5 9.99998
      vertex 8.7 4 9.99998
      vertex 8.02999 4 9.99998
    endloop
  endfacet
  facet normal 0 0 1
    outer loop
      vertex 8.7 4 9.99998
      vertex 8.02999 3.5 9.99998
      vertex 8.7 -4 9.99998
    endloop
  endfacet
  facet normal 0 0 1
    outer loop
      vertex 7 -4 9.99998
      vertex 8.02999 3.5 9.99998
      vertex 7.33001 3.5 9.99998
    endloop
  endfacet
  facet normal 0 0 1
    outer loop
      vertex 7 -4 9.99998
      vertex 7.33001 3.5 9.99998
      vertex 7 4 9.99998
    endloop
  endfacet
  facet normal 0 0 1
    outer loop
      vertex 8.02999 3.5 9.99998
      vertex 7 -4 9.99998
      vertex 8.7 -4 9.99998
    endloop
  endfacet
  facet normal -1 0 0
    outer loop
      vertex 7 -4 9.2
      vertex 7 4 9.99998
      vertex 7 4 9.2
    endloop
  endfacet
  facet normal -1 -0 0
    outer loop
      vertex 7 4 9.99998
      vertex 7 -4 9.2
      vertex 7 -4 9.99998
    endloop
  endfacet
  facet normal 0 0 -1
    outer loop
      vertex 7 -4 9.2
      vertex 7.28999 4 9.2
      vertex 7.28999 -4 9.2
    endloop
  endfacet
  facet normal -0 0 -1
    outer loop
      vertex 7.28999 4 9.2
      vertex 7 -4 9.2
      vertex 7 4 9.2
    endloop
  endfacet
  facet normal -1 0 0
    outer loop
      vertex 7.28999 -4 8.15997
      vertex 7.28999 4 9.2
      vertex 7.28999 4 8.15997
    endloop
  endfacet
  facet normal -1 -0 0
    outer loop
      vertex 7.28999 4 9.2
      vertex 7.28999 -4 8.15997
      vertex 7.28999 -4 9.2
    endloop
  endfacet
  facet normal -0 0 1
    outer loop
      vertex 5.59999 4 8.15997
      vertex 7.28999 -4 8.15997
      vertex 7.28999 4 8.15997
    endloop
  endfacet
  facet normal 0 0 1
    outer loop
      vertex 7.28999 -4 8.15997
      vertex 5.59999 4 8.15997
      vertex 5.59999 -4 8.15997
    endloop
  endfacet
  facet normal -1 0 0
    outer loop
      vertex 5.59999 -4 7.35999
      vertex 5.59999 4 8.15997
      vertex 5.59999 4 7.35999
    endloop
  endfacet
  facet normal -1 -0 0
    outer loop
      vertex 5.59999 4 8.15997
      vertex 5.59999 -4 7.35999
      vertex 5.59999 -4 8.15997
    endloop
  endfacet
  facet normal 0 0 -1
    outer loop
      vertex 5.59999 -4 7.35999
      vertex 5.88998 4 7.35999
      vertex 5.88998 -4 7.35999
    endloop
  endfacet
  facet normal -0 0 -1
    outer loop
      vertex 5.88998 4 7.35999
      vertex 5.59999 -4 7.35999
      vertex 5.59999 4 7.35999
    endloop
  endfacet
  facet normal -1 0 0
    outer loop
      vertex 5.88998 -4 6.31998
      vertex 5.88998 4 7.35999
      vertex 5.88998 4 6.31998
    endloop
  endfacet
  facet normal -1 -0 0
    outer loop
      vertex 5.88998 4 7.35999
      vertex 5.88998 -4 6.31998
      vertex 5.88998 -4 7.35999
    endloop
  endfacet
  facet normal 0 0 1
    outer loop
      vertex 4.53001 4 6.31998
      vertex 4.2 4 6.31998
      vertex 4.53001 3.5 6.31998
    endloop
  endfacet
  facet normal 0 0 1
    outer loop
      vertex 5.22999 3.5 6.31998
      vertex 5.88998 4 6.31998
      vertex 5.22999 4 6.31998
    endloop
  endfacet
  facet normal 0 0 1
    outer loop
      vertex 5.88998 4 6.31998
      vertex 5.22999 3.5 6.31998
      vertex 5.88998 -4 6.31998
    endloop
  endfacet
  facet normal 0 0 1
    outer loop
      vertex 4.2 -4 6.31998
      vertex 5.22999 3.5 6.31998
      vertex 4.53001 3.5 6.31998
    endloop
  endfacet
  facet normal 0 0 1
    outer loop
      vertex 4.2 -4 6.31998
      vertex 4.53001 3.5 6.31998
      vertex 4.2 4 6.31998
    endloop
  endfacet
  facet normal 0 0 1
    outer loop
      vertex 5.22999 3.5 6.31998
      vertex 4.2 -4 6.31998
      vertex 5.88998 -4 6.31998
    endloop
  endfacet
  facet normal -1 0 0
    outer loop
      vertex 4.2 -4 5.51999
      vertex 4.2 4 6.31998
      vertex 4.2 4 5.51999
    endloop
  endfacet
  facet normal -1 -0 0
    outer loop
      vertex 4.2 4 6.31998
      vertex 4.2 -4 5.51999
      vertex 4.2 -4 6.31998
    endloop
  endfacet
  facet normal 0 0 -1
    outer loop
      vertex 4.2 -4 5.51999
      vertex 4.48999 4 5.51999
      vertex 4.48999 -4 5.51999
    endloop
  endfacet
  facet normal -0 0 -1
    outer loop
      vertex 4.48999 4 5.51999
      vertex 4.2 -4 5.51999
      vertex 4.2 4 5.51999
    endloop
  endfacet
  facet normal -1 0 0
    outer loop
      vertex 4.48999 -4 4.47998
      vertex 4.48999 4 5.51999
      vertex 4.48999 4 4.47998
    endloop
  endfacet
  facet normal -1 -0 0
    outer loop
      vertex 4.48999 4 5.51999
      vertex 4.48999 -4 4.47998
      vertex 4.48999 -4 5.51999
    endloop
  endfacet
  facet normal -0 0 1
    outer loop
      vertex 2.79999 4 4.47998
      vertex 4.48999 -4 4.47998
      vertex 4.48999 4 4.47998
    endloop
  endfacet
  facet normal 0 0 1
    outer loop
      vertex 4.48999 -4 4.47998
      vertex 2.79999 4 4.47998
      vertex 2.79999 -4 4.47998
    endloop
  endfacet
  facet normal -1 0 0
    outer loop
      vertex 2.79999 -4 3.67999
      vertex 2.79999 4 4.47998
      vertex 2.79999 4 3.67999
    endloop
  endfacet
  facet normal -1 -0 0
    outer loop
      vertex 2.79999 4 4.47998
      vertex 2.79999 -4 3.67999
      vertex 2.79999 -4 4.47998
    endloop
  endfacet
  facet normal 0 -1.19209e-07 -1
    outer loop
      vertex 2.79999 -4 3.67999
      vertex 3.08998 4 3.67999
      vertex 3.08998 -4 3.67999
    endloop
  endfacet
  facet normal -0 -1.19209e-07 -1
    outer loop
      vertex 3.08998 4 3.67999
      vertex 2.79999 -4 3.67999
      vertex 2.79999 4 3.67999
    endloop
  endfacet
  facet normal -1 0 0
    outer loop
      vertex 3.08998 4 2.63998
      vertex 3.08998 -4 3.67999
      vertex 3.08998 4 3.67999
    endloop
  endfacet
  facet normal -1 0 -0
    outer loop
      vertex 3.08998 -4 3.67999
      vertex 3.08998 4 2.63998
      vertex 3.08998 -4 2.63998
    endloop
  endfacet
  facet normal 0 0 1
    outer loop
      vertex 1.73 4 2.63998
      vertex 1.39999 4 2.63998
      vertex 1.73 3.5 2.63998
    endloop
  endfacet
  facet normal 0 0 1
    outer loop
      vertex 2.42998 3.5 2.63998
      vertex 3.08998 4 2.63998
      vertex 2.42998 4 2.63998
    endloop
  endfacet
  facet normal -9.03105e-08 1.19209e-07 1
    outer loop
      vertex 3.08998 4 2.63998
      vertex 2.42998 3.5 2.63998
      vertex 3.08998 -4 2.63998
    endloop
  endfacet
  facet normal 0 1.27157e-07 1
    outer loop
      vertex 1.39999 -4 2.63998
      vertex 2.42998 3.5 2.63998
      vertex 1.73 3.5 2.63998
    endloop
  endfacet
  facet normal 1.80615e-07 1.19209e-07 1
    outer loop
      vertex 1.39999 -4 2.63998
      vertex 1.73 3.5 2.63998
      vertex 1.39999 4 2.63998
    endloop
  endfacet
  facet normal 0 1.27157e-07 1
    outer loop
      vertex 2.42998 3.5 2.63998
      vertex 1.39999 -4 2.63998
      vertex 3.08998 -4 2.63998
    endloop
  endfacet
  facet normal -1 0 0
    outer loop
      vertex 1.39999 -4 1.84
      vertex 1.39999 4 2.63998
      vertex 1.39999 4 1.84
    endloop
  endfacet
  facet normal -1 -0 0
    outer loop
      vertex 1.39999 4 2.63998
      vertex 1.39999 -4 1.84
      vertex 1.39999 -4 2.63998
    endloop
  endfacet
  facet normal 0 -1.19209e-07 -1
    outer loop
      vertex 1.39999 -4 1.84
      vertex 1.68999 4 1.84
      vertex 1.68999 -4 1.84
    endloop
  endfacet
  facet normal -0 -1.19209e-07 -1
    outer loop
      vertex 1.68999 4 1.84
      vertex 1.39999 -4 1.84
      vertex 1.39999 4 1.84
    endloop
  endfacet
  facet normal -1 0 0
    outer loop
      vertex 1.68999 -4 0
      vertex 1.68999 4 1.84
      vertex 1.68999 4 0
    endloop
  endfacet
  facet normal -1 -0 0
    outer loop
      vertex 1.68999 4 1.84
      vertex 1.68999 -4 0
      vertex 1.68999 -4 1.84
    endloop
  endfacet
  facet normal 0 0 -1
    outer loop
      vertex 1.68999 -4 0
      vertex 1.99998 4 0
      vertex 1.99998 -4 0
    endloop
  endfacet
  facet normal -0 0 -1
    outer loop
      vertex 1.99998 4 0
      vertex 1.68999 -4 0
      vertex 1.68999 4 0
    endloop
  endfacet
  facet normal 0.795826 0 -0.605525
    outer loop
      vertex 1.99998 4 0
      vertex 3.38998 4 1.82684
      vertex 1.99998 -4 0
    endloop
  endfacet
  facet normal 0.795827 -7.21842e-08 -0.605525
    outer loop
      vertex 3.38998 4 1.82684
      vertex 3.38998 -4 1.82684
      vertex 1.99998 -4 0
    endloop
  endfacet
  facet normal 0 -1 0
    outer loop
      vertex 5.22999 3.5 6.31998
      vertex 4.53001 3.5 9.48199
      vertex 4.53001 3.5 6.31998
    endloop
  endfacet
  facet normal 0 -1 0
    outer loop
      vertex 4.53001 3.5 9.48199
      vertex 5.22999 3.5 6.31998
      vertex 5.22999 3.5 10.402
    endloop
  endfacet
  facet normal 0 -1 0
    outer loop
      vertex 5.22999 3.5 11.558
      vertex 7.33001 3.5 13.162
      vertex 7.33001 3.5 14.318
    endloop
  endfacet
  facet normal 0 -1 0
    outer loop
      vertex 5.22999 3.5 10.402
      vertex 5.22999 3.5 11.558
      vertex 4.53001 3.5 10.638
    endloop
  endfacet
  facet normal 0 -1 0
    outer loop
      vertex 5.22999 3.5 11.558
      vertex 5.22999 3.5 10.402
      vertex 7.33001 3.5 13.162
    endloop
  endfacet
  facet normal 0 -1 0
    outer loop
      vertex 4.53001 3.5 10.638
      vertex 4.53001 3.5 9.48199
      vertex 5.22999 3.5 10.402
    endloop
  endfacet
  facet normal 0 -1 0
    outer loop
      vertex 2.42998 3.5 7.87801
      vertex 4.53001 3.5 9.48199
      vertex 4.53001 3.5 10.638
    endloop
  endfacet
  facet normal 0 -1 0
    outer loop
      vertex 4.53001 3.5 9.48199
      vertex 2.42998 3.5 7.87801
      vertex 2.42998 3.5 6.72198
    endloop
  endfacet
  facet normal 0 -1 0
    outer loop
      vertex 7.6457 3.5 17.5483
      vertex 7.7143 3.5 17.5483
      vertex 7.68 3.5 17.55
    endloop
  endfacet
  facet normal 0 -1 0
    outer loop
      vertex 7.61173 3.5 17.5433
      vertex 7.7143 3.5 17.5483
      vertex 7.6457 3.5 17.5483
    endloop
  endfacet
  facet normal 0 -1 0
    outer loop
      vertex 7.61173 3.5 17.5433
      vertex 7.74827 3.5 17.5433
      vertex 7.7143 3.5 17.5483
    endloop
  endfacet
  facet normal 0 -1 0
    outer loop
      vertex 7.57841 3.5 17.5349
      vertex 7.74827 3.5 17.5433
      vertex 7.61173 3.5 17.5433
    endloop
  endfacet
  facet normal 0 -1 0
    outer loop
      vertex 7.57841 3.5 17.5349
      vertex 7.78159 3.5 17.5349
      vertex 7.74827 3.5 17.5433
    endloop
  endfacet
  facet normal 0 -1 0
    outer loop
      vertex 7.54607 3.5 17.5233
      vertex 7.78159 3.5 17.5349
      vertex 7.57841 3.5 17.5349
    endloop
  endfacet
  facet normal 0 -1 0
    outer loop
      vertex 7.54607 3.5 17.5233
      vertex 7.81393 3.5 17.5233
      vertex 7.78159 3.5 17.5349
    endloop
  endfacet
  facet normal 0 -1 0
    outer loop
      vertex 7.51502 3.5 17.5087
      vertex 7.81393 3.5 17.5233
      vertex 7.54607 3.5 17.5233
    endloop
  endfacet
  facet normal 0 -1 0
    outer loop
      vertex 7.51502 3.5 17.5087
      vertex 7.84498 3.5 17.5087
      vertex 7.81393 3.5 17.5233
    endloop
  endfacet
  facet normal 0 -1 0
    outer loop
      vertex 7.48556 3.5 17.491
      vertex 7.84498 3.5 17.5087
      vertex 7.51502 3.5 17.5087
    endloop
  endfacet
  facet normal 0 -1 0
    outer loop
      vertex 7.48556 3.5 17.491
      vertex 7.87444 3.5 17.491
      vertex 7.84498 3.5 17.5087
    endloop
  endfacet
  facet normal 0 -1 0
    outer loop
      vertex 7.45797 3.5 17.4706
      vertex 7.87444 3.5 17.491
      vertex 7.48556 3.5 17.491
    endloop
  endfacet
  facet normal 0 -1 0
    outer loop
      vertex 7.45797 3.5 17.4706
      vertex 7.90203 3.5 17.4706
      vertex 7.87444 3.5 17.491
    endloop
  endfacet
  facet normal 0 -1 0
    outer loop
      vertex 7.43252 3.5 17.4475
      vertex 7.90203 3.5 17.4706
      vertex 7.45797 3.5 17.4706
    endloop
  endfacet
  facet normal 0 -1 0
    outer loop
      vertex 7.43252 3.5 17.4475
      vertex 7.92748 3.5 17.4475
      vertex 7.90203 3.5 17.4706
    endloop
  endfacet
  facet normal 0 -1 0
    outer loop
      vertex 7.43252 3.5 17.4475
      vertex 7.95055 3.5 17.422
      vertex 7.92748 3.5 17.4475
    endloop
  endfacet
  facet normal 0 -1 0
    outer loop
      vertex 7.40145 3.5 17.4119
      vertex 7.95055 3.5 17.422
      vertex 7.43252 3.5 17.4475
    endloop
  endfacet
  facet normal 0 -1 0
    outer loop
      vertex 7.40145 3.5 17.4119
      vertex 7.971 3.5 17.3944
      vertex 7.95055 3.5 17.422
    endloop
  endfacet
  facet normal 0 -1 0
    outer loop
      vertex 7.40145 3.5 17.4119
      vertex 7.98867 3.5 17.365
      vertex 7.971 3.5 17.3944
    endloop
  endfacet
  facet normal 0 -1 0
    outer loop
      vertex 7.40145 3.5 17.4119
      vertex 8.00335 3.5 17.3339
      vertex 7.98867 3.5 17.365
    endloop
  endfacet
  facet normal 0 -1 0
    outer loop
      vertex 7.40145 3.5 17.4119
      vertex 8.01491 3.5 17.3016
      vertex 8.00335 3.5 17.3339
    endloop
  endfacet
  facet normal 0 -1 0
    outer loop
      vertex 7.40145 3.5 17.4119
      vertex 8.02326 3.5 17.2683
      vertex 8.01491 3.5 17.3016
    endloop
  endfacet
  facet normal 0 -1 0
    outer loop
      vertex 7.40145 3.5 17.4119
      vertex 8.02831 3.5 17.2343
      vertex 8.02326 3.5 17.2683
    endloop
  endfacet
  facet normal 0 -1 0
    outer loop
      vertex 7.40145 3.5 17.4119
      vertex 8.02999 3.5 17.2
      vertex 8.02831 3.5 17.2343
    endloop
  endfacet
  facet normal 0 -1 -0
    outer loop
      vertex 7.40145 3.5 17.4119
      vertex 7.33001 3.5 16.162
      vertex 8.02999 3.5 17.2
    endloop
  endfacet
  facet normal 0 -1 0
    outer loop
      vertex 7.40145 3.5 17.4119
      vertex 5.22999 3.5 13.402
      vertex 7.33001 3.5 16.162
    endloop
  endfacet
  facet normal 0 -1 0
    outer loop
      vertex 1.78899 3.5 10.0344
      vertex 5.22999 3.5 13.402
      vertex 7.40145 3.5 17.4119
    endloop
  endfacet
  facet normal 0 -1 0
    outer loop
      vertex 5.22999 3.5 13.402
      vertex 1.78899 3.5 10.0344
      vertex 4.53001 3.5 12.482
    endloop
  endfacet
  facet normal 0 -1 0
    outer loop
      vertex 2.42998 3.5 9.72198
      vertex 1.78899 3.5 10.0344
      vertex 1.77132 3.5 10.005
    endloop
  endfacet
  facet normal 0 -1 0
    outer loop
      vertex 2.42998 3.5 9.72198
      vertex 1.77132 3.5 10.005
      vertex 1.75664 3.5 9.97392
    endloop
  endfacet
  facet normal 0 -1 0
    outer loop
      vertex 2.42998 3.5 9.72198
      vertex 1.75664 3.5 9.97392
      vertex 1.74508 3.5 9.94159
    endloop
  endfacet
  facet normal 0 -1 0
    outer loop
      vertex 2.42998 3.5 9.72198
      vertex 1.74508 3.5 9.94159
      vertex 1.73673 3.5 9.90826
    endloop
  endfacet
  facet normal 0 -1 0
    outer loop
      vertex 2.42998 3.5 9.72198
      vertex 1.73673 3.5 9.90826
      vertex 1.73168 3.5 9.8743
    endloop
  endfacet
  facet normal 0 -1 0
    outer loop
      vertex 2.42998 3.5 9.72198
      vertex 1.73168 3.5 9.8743
      vertex 1.73 3.5 9.84
    endloop
  endfacet
  facet normal 0 -1 0
    outer loop
      vertex 1.78899 3.5 10.0344
      vertex 2.42998 3.5 9.72198
      vertex 4.53001 3.5 12.482
    endloop
  endfacet
  facet normal 0 -1 0
    outer loop
      vertex 1.73 3.5 9.84
      vertex 2.42998 3.5 7.87801
      vertex 2.42998 3.5 9.72198
    endloop
  endfacet
  facet normal 0 -1 0
    outer loop
      vertex 1.73 3.5 9.84
      vertex 2.42998 3.5 6.72198
      vertex 2.42998 3.5 7.87801
    endloop
  endfacet
  facet normal 0 -1 0
    outer loop
      vertex 1.73 3.5 2.63998
      vertex 2.42998 3.5 6.72198
      vertex 1.73 3.5 9.84
    endloop
  endfacet
  facet normal 0 -1 -0
    outer loop
      vertex 2.42998 3.5 6.72198
      vertex 1.73 3.5 2.63998
      vertex 2.42998 3.5 2.63998
    endloop
  endfacet
  facet normal 0 -1 0
    outer loop
      vertex 7.33001 3.5 14.318
      vertex 8.02999 3.5 17.2
      vertex 7.33001 3.5 16.162
    endloop
  endfacet
  facet normal 0 -1 0
    outer loop
      vertex 7.33001 3.5 13.162
      vertex 8.02999 3.5 17.2
      vertex 7.33001 3.5 14.318
    endloop
  endfacet
  facet normal 0 -1 0
    outer loop
      vertex 8.02999 3.5 9.99998
      vertex 7.33001 3.5 13.162
      vertex 7.33001 3.5 9.99998
    endloop
  endfacet
  facet normal 0 -1 0
    outer loop
      vertex 7.33001 3.5 13.162
      vertex 8.02999 3.5 9.99998
      vertex 8.02999 3.5 17.2
    endloop
  endfacet
  facet normal 0 -1 0
    outer loop
      vertex 4.53001 3.5 12.482
      vertex 5.22999 3.5 11.558
      vertex 5.22999 3.5 13.402
    endloop
  endfacet
  facet normal -0 -1 0
    outer loop
      vertex 5.22999 3.5 11.558
      vertex 4.53001 3.5 12.482
      vertex 4.53001 3.5 10.638
    endloop
  endfacet
  facet normal 0.795827 0 -0.605524
    outer loop
      vertex 4.53001 3.5 9.48199
      vertex 2.42998 4 6.72198
      vertex 4.53001 4 9.48199
    endloop
  endfacet
  facet normal 0.795827 0 -0.605524
    outer loop
      vertex 2.42998 4 6.72198
      vertex 4.53001 3.5 9.48199
      vertex 2.42998 3.5 6.72198
    endloop
  endfacet
  facet normal -1 0 0
    outer loop
      vertex 4.53001 3.5 6.31998
      vertex 4.53001 4 9.48199
      vertex 4.53001 4 6.31998
    endloop
  endfacet
  facet normal -1 -0 0
    outer loop
      vertex 4.53001 4 9.48199
      vertex 4.53001 3.5 6.31998
      vertex 4.53001 3.5 9.48199
    endloop
  endfacet
  facet normal 1 -0 0
    outer loop
      vertex 5.22999 3.5 10.402
      vertex 5.22999 4 6.31998
      vertex 5.22999 4 10.402
    endloop
  endfacet
  facet normal 1 0 0
    outer loop
      vertex 5.22999 4 6.31998
      vertex 5.22999 3.5 10.402
      vertex 5.22999 3.5 6.31998
    endloop
  endfacet
  facet normal 0.795827 0 -0.605524
    outer loop
      vertex 7.33001 3.5 13.162
      vertex 5.22999 4 10.402
      vertex 7.33001 4 13.162
    endloop
  endfacet
  facet normal 0.795827 0 -0.605524
    outer loop
      vertex 5.22999 4 10.402
      vertex 7.33001 3.5 13.162
      vertex 5.22999 3.5 10.402
    endloop
  endfacet
  facet normal -1 0 0
    outer loop
      vertex 7.33001 3.5 9.99998
      vertex 7.33001 4 13.162
      vertex 7.33001 4 9.99998
    endloop
  endfacet
  facet normal -1 -0 0
    outer loop
      vertex 7.33001 4 13.162
      vertex 7.33001 3.5 9.99998
      vertex 7.33001 3.5 13.162
    endloop
  endfacet
  facet normal 1 -0 0
    outer loop
      vertex 8.02999 3.5 17.2
      vertex 8.02999 4 9.99998
      vertex 8.02999 4 17.2
    endloop
  endfacet
  facet normal 1 0 0
    outer loop
      vertex 8.02999 4 9.99998
      vertex 8.02999 3.5 17.2
      vertex 8.02999 3.5 9.99998
    endloop
  endfacet
  facet normal 0.998805 -0 0.0488739
    outer loop
      vertex 8.02831 3.5 17.2343
      vertex 8.02999 4 17.2
      vertex 8.02831 4 17.2343
    endloop
  endfacet
  facet normal 0.998805 0 0.0488739
    outer loop
      vertex 8.02999 4 17.2
      vertex 8.02831 3.5 17.2343
      vertex 8.02999 3.5 17.2
    endloop
  endfacet
  facet normal 0.989125 -0 0.14708
    outer loop
      vertex 8.02326 3.5 17.2683
      vertex 8.02831 4 17.2343
      vertex 8.02326 4 17.2683
    endloop
  endfacet
  facet normal 0.989125 0 0.14708
    outer loop
      vertex 8.02831 4 17.2343
      vertex 8.02326 3.5 17.2683
      vertex 8.02831 3.5 17.2343
    endloop
  endfacet
  facet normal 0.970038 -0 0.242954
    outer loop
      vertex 8.01491 3.5 17.3016
      vertex 8.02326 4 17.2683
      vertex 8.01491 4 17.3016
    endloop
  endfacet
  facet normal 0.970038 0 0.242954
    outer loop
      vertex 8.02326 4 17.2683
      vertex 8.01491 3.5 17.3016
      vertex 8.02326 3.5 17.2683
    endloop
  endfacet
  facet normal 0.941571 -0 0.336815
    outer loop
      vertex 8.00335 3.5 17.3339
      vertex 8.01491 4 17.3016
      vertex 8.00335 4 17.3339
    endloop
  endfacet
  facet normal 0.941571 0 0.336815
    outer loop
      vertex 8.01491 4 17.3016
      vertex 8.00335 3.5 17.3339
      vertex 8.01491 3.5 17.3016
    endloop
  endfacet
  facet normal 0.904072 -0 0.42738
    outer loop
      vertex 7.98867 3.5 17.365
      vertex 8.00335 4 17.3339
      vertex 7.98867 4 17.365
    endloop
  endfacet
  facet normal 0.904072 0 0.42738
    outer loop
      vertex 8.00335 4 17.3339
      vertex 7.98867 3.5 17.365
      vertex 8.00335 3.5 17.3339
    endloop
  endfacet
  facet normal 0.85761 -0 0.5143
    outer loop
      vertex 7.971 3.5 17.3944
      vertex 7.98867 4 17.365
      vertex 7.971 4 17.3944
    endloop
  endfacet
  facet normal 0.85761 0 0.5143
    outer loop
      vertex 7.98867 4 17.365
      vertex 7.971 3.5 17.3944
      vertex 7.98867 3.5 17.365
    endloop
  endfacet
  facet normal 0.8034 -0 0.59544
    outer loop
      vertex 7.95055 3.5 17.422
      vertex 7.971 4 17.3944
      vertex 7.95055 4 17.422
    endloop
  endfacet
  facet normal 0.8034 0 0.59544
    outer loop
      vertex 7.971 4 17.3944
      vertex 7.95055 3.5 17.422
      vertex 7.971 3.5 17.3944
    endloop
  endfacet
  facet normal 0.740904 -0 0.671611
    outer loop
      vertex 7.92748 3.5 17.4475
      vertex 7.95055 4 17.422
      vertex 7.92748 4 17.4475
    endloop
  endfacet
  facet normal 0.740904 0 0.671611
    outer loop
      vertex 7.95055 4 17.422
      vertex 7.92748 3.5 17.4475
      vertex 7.95055 3.5 17.422
    endloop
  endfacet
  facet normal 0.671611 0 0.740904
    outer loop
      vertex 7.90203 4 17.4706
      vertex 7.92748 3.5 17.4475
      vertex 7.92748 4 17.4475
    endloop
  endfacet
  facet normal 0.671611 0 0.740904
    outer loop
      vertex 7.92748 3.5 17.4475
      vertex 7.90203 4 17.4706
      vertex 7.90203 3.5 17.4706
    endloop
  endfacet
  facet normal 0.59544 0 0.8034
    outer loop
      vertex 7.87444 4 17.491
      vertex 7.90203 3.5 17.4706
      vertex 7.90203 4 17.4706
    endloop
  endfacet
  facet normal 0.59544 0 0.8034
    outer loop
      vertex 7.90203 3.5 17.4706
      vertex 7.87444 4 17.491
      vertex 7.87444 3.5 17.491
    endloop
  endfacet
  facet normal 0.5143 0 0.85761
    outer loop
      vertex 7.84498 4 17.5087
      vertex 7.87444 3.5 17.491
      vertex 7.87444 4 17.491
    endloop
  endfacet
  facet normal 0.5143 0 0.85761
    outer loop
      vertex 7.87444 3.5 17.491
      vertex 7.84498 4 17.5087
      vertex 7.84498 3.5 17.5087
    endloop
  endfacet
  facet normal 0.42738 0 0.904072
    outer loop
      vertex 7.81393 4 17.5233
      vertex 7.84498 3.5 17.5087
      vertex 7.84498 4 17.5087
    endloop
  endfacet
  facet normal 0.42738 0 0.904072
    outer loop
      vertex 7.84498 3.5 17.5087
      vertex 7.81393 4 17.5233
      vertex 7.81393 3.5 17.5233
    endloop
  endfacet
  facet normal 0.336815 0 0.941571
    outer loop
      vertex 7.78159 4 17.5349
      vertex 7.81393 3.5 17.5233
      vertex 7.81393 4 17.5233
    endloop
  endfacet
  facet normal 0.336815 0 0.941571
    outer loop
      vertex 7.81393 3.5 17.5233
      vertex 7.78159 4 17.5349
      vertex 7.78159 3.5 17.5349
    endloop
  endfacet
  facet normal 0.242954 0 0.970038
    outer loop
      vertex 7.74827 4 17.5433
      vertex 7.78159 3.5 17.5349
      vertex 7.78159 4 17.5349
    endloop
  endfacet
  facet normal 0.242954 0 0.970038
    outer loop
      vertex 7.78159 3.5 17.5349
      vertex 7.74827 4 17.5433
      vertex 7.74827 3.5 17.5433
    endloop
  endfacet
  facet normal 0.14708 0 0.989125
    outer loop
      vertex 7.7143 4 17.5483
      vertex 7.74827 3.5 17.5433
      vertex 7.74827 4 17.5433
    endloop
  endfacet
  facet normal 0.14708 0 0.989125
    outer loop
      vertex 7.74827 3.5 17.5433
      vertex 7.7143 4 17.5483
      vertex 7.7143 3.5 17.5483
    endloop
  endfacet
  facet normal 0.0488739 0 0.998805
    outer loop
      vertex 7.68 4 17.55
      vertex 7.7143 3.5 17.5483
      vertex 7.7143 4 17.5483
    endloop
  endfacet
  facet normal 0.0488739 0 0.998805
    outer loop
      vertex 7.7143 3.5 17.5483
      vertex 7.68 4 17.55
      vertex 7.68 3.5 17.55
    endloop
  endfacet
  facet normal -0.0488739 0 0.998805
    outer loop
      vertex 7.6457 4 17.5483
      vertex 7.68 3.5 17.55
      vertex 7.68 4 17.55
    endloop
  endfacet
  facet normal -0.0488739 0 0.998805
    outer loop
      vertex 7.68 3.5 17.55
      vertex 7.6457 4 17.5483
      vertex 7.6457 3.5 17.5483
    endloop
  endfacet
  facet normal -0.14708 0 0.989125
    outer loop
      vertex 7.61173 4 17.5433
      vertex 7.6457 3.5 17.5483
      vertex 7.6457 4 17.5483
    endloop
  endfacet
  facet normal -0.14708 0 0.989125
    outer loop
      vertex 7.6457 3.5 17.5483
      vertex 7.61173 4 17.5433
      vertex 7.61173 3.5 17.5433
    endloop
  endfacet
  facet normal -0.242954 0 0.970038
    outer loop
      vertex 7.57841 4 17.5349
      vertex 7.61173 3.5 17.5433
      vertex 7.61173 4 17.5433
    endloop
  endfacet
  facet normal -0.242954 0 0.970038
    outer loop
      vertex 7.61173 3.5 17.5433
      vertex 7.57841 4 17.5349
      vertex 7.57841 3.5 17.5349
    endloop
  endfacet
  facet normal -0.336815 0 0.941571
    outer loop
      vertex 7.54607 4 17.5233
      vertex 7.57841 3.5 17.5349
      vertex 7.57841 4 17.5349
    endloop
  endfacet
  facet normal -0.336815 0 0.941571
    outer loop
      vertex 7.57841 3.5 17.5349
      vertex 7.54607 4 17.5233
      vertex 7.54607 3.5 17.5233
    endloop
  endfacet
  facet normal -0.42738 0 0.904072
    outer loop
      vertex 7.51502 4 17.5087
      vertex 7.54607 3.5 17.5233
      vertex 7.54607 4 17.5233
    endloop
  endfacet
  facet normal -0.42738 0 0.904072
    outer loop
      vertex 7.54607 3.5 17.5233
      vertex 7.51502 4 17.5087
      vertex 7.51502 3.5 17.5087
    endloop
  endfacet
  facet normal -0.5143 0 0.85761
    outer loop
      vertex 7.48556 4 17.491
      vertex 7.51502 3.5 17.5087
      vertex 7.51502 4 17.5087
    endloop
  endfacet
  facet normal -0.5143 0 0.85761
    outer loop
      vertex 7.51502 3.5 17.5087
      vertex 7.48556 4 17.491
      vertex 7.48556 3.5 17.491
    endloop
  endfacet
  facet normal -0.59544 0 0.8034
    outer loop
      vertex 7.45797 4 17.4706
      vertex 7.48556 3.5 17.491
      vertex 7.48556 4 17.491
    endloop
  endfacet
  facet normal -0.59544 0 0.8034
    outer loop
      vertex 7.48556 3.5 17.491
      vertex 7.45797 4 17.4706
      vertex 7.45797 3.5 17.4706
    endloop
  endfacet
  facet normal -0.671611 0 0.740904
    outer loop
      vertex 7.43252 4 17.4475
      vertex 7.45797 3.5 17.4706
      vertex 7.45797 4 17.4706
    endloop
  endfacet
  facet normal -0.671611 0 0.740904
    outer loop
      vertex 7.45797 3.5 17.4706
      vertex 7.43252 4 17.4475
      vertex 7.43252 3.5 17.4475
    endloop
  endfacet
  facet normal -0.753017 0 0.658001
    outer loop
      vertex 7.40145 3.5 17.4119
      vertex 7.43252 4 17.4475
      vertex 7.40145 4 17.4119
    endloop
  endfacet
  facet normal -0.753017 0 0.658001
    outer loop
      vertex 7.43252 4 17.4475
      vertex 7.40145 3.5 17.4119
      vertex 7.43252 3.5 17.4475
    endloop
  endfacet
  facet normal -0.795873 0 0.605464
    outer loop
      vertex 1.78899 3.5 10.0344
      vertex 7.40145 4 17.4119
      vertex 1.78899 4 10.0344
    endloop
  endfacet
  facet normal -0.795873 0 0.605464
    outer loop
      vertex 7.40145 4 17.4119
      vertex 1.78899 3.5 10.0344
      vertex 7.40145 3.5 17.4119
    endloop
  endfacet
  facet normal -0.85761 0 0.5143
    outer loop
      vertex 1.77132 3.5 10.005
      vertex 1.78899 4 10.0344
      vertex 1.77132 4 10.005
    endloop
  endfacet
  facet normal -0.85761 0 0.5143
    outer loop
      vertex 1.78899 4 10.0344
      vertex 1.77132 3.5 10.005
      vertex 1.78899 3.5 10.0344
    endloop
  endfacet
  facet normal -0.904072 0 0.42738
    outer loop
      vertex 1.75664 3.5 9.97392
      vertex 1.77132 4 10.005
      vertex 1.75664 4 9.97392
    endloop
  endfacet
  facet normal -0.904072 0 0.42738
    outer loop
      vertex 1.77132 4 10.005
      vertex 1.75664 3.5 9.97392
      vertex 1.77132 3.5 10.005
    endloop
  endfacet
  facet normal -0.941571 0 0.336815
    outer loop
      vertex 1.74508 3.5 9.94159
      vertex 1.75664 4 9.97392
      vertex 1.74508 4 9.94159
    endloop
  endfacet
  facet normal -0.941571 0 0.336815
    outer loop
      vertex 1.75664 4 9.97392
      vertex 1.74508 3.5 9.94159
      vertex 1.75664 3.5 9.97392
    endloop
  endfacet
  facet normal -0.970038 0 0.242954
    outer loop
      vertex 1.73673 3.5 9.90826
      vertex 1.74508 4 9.94159
      vertex 1.73673 4 9.90826
    endloop
  endfacet
  facet normal -0.970038 0 0.242954
    outer loop
      vertex 1.74508 4 9.94159
      vertex 1.73673 3.5 9.90826
      vertex 1.74508 3.5 9.94159
    endloop
  endfacet
  facet normal -0.989125 0 0.14708
    outer loop
      vertex 1.73168 3.5 9.8743
      vertex 1.73673 4 9.90826
      vertex 1.73168 4 9.8743
    endloop
  endfacet
  facet normal -0.989125 0 0.14708
    outer loop
      vertex 1.73673 4 9.90826
      vertex 1.73168 3.5 9.8743
      vertex 1.73673 3.5 9.90826
    endloop
  endfacet
  facet normal -0.998805 0 0.0488739
    outer loop
      vertex 1.73 3.5 9.84
      vertex 1.73168 4 9.8743
      vertex 1.73 4 9.84
    endloop
  endfacet
  facet normal -0.998805 0 0.0488739
    outer loop
      vertex 1.73168 4 9.8743
      vertex 1.73 3.5 9.84
      vertex 1.73168 3.5 9.8743
    endloop
  endfacet
  facet normal -1 0 0
    outer loop
      vertex 1.73 3.5 2.63998
      vertex 1.73 4 9.84
      vertex 1.73 4 2.63998
    endloop
  endfacet
  facet normal -1 -0 0
    outer loop
      vertex 1.73 4 9.84
      vertex 1.73 3.5 2.63998
      vertex 1.73 3.5 9.84
    endloop
  endfacet
  facet normal 1 -0 0
    outer loop
      vertex 2.42998 3.5 6.72198
      vertex 2.42998 4 2.63998
      vertex 2.42998 4 6.72198
    endloop
  endfacet
  facet normal 1 0 0
    outer loop
      vertex 2.42998 4 2.63998
      vertex 2.42998 3.5 6.72198
      vertex 2.42998 3.5 2.63998
    endloop
  endfacet
  facet normal 0.795827 0 -0.605524
    outer loop
      vertex 7.33001 3.5 16.162
      vertex 5.22999 4 13.402
      vertex 7.33001 4 16.162
    endloop
  endfacet
  facet normal 0.795827 0 -0.605524
    outer loop
      vertex 5.22999 4 13.402
      vertex 7.33001 3.5 16.162
      vertex 5.22999 3.5 13.402
    endloop
  endfacet
  facet normal -1 0 0
    outer loop
      vertex 7.33001 3.5 14.318
      vertex 7.33001 4 16.162
      vertex 7.33001 4 14.318
    endloop
  endfacet
  facet normal -1 -0 0
    outer loop
      vertex 7.33001 4 16.162
      vertex 7.33001 3.5 14.318
      vertex 7.33001 3.5 16.162
    endloop
  endfacet
  facet normal -0.795828 0 0.605522
    outer loop
      vertex 5.22999 3.5 11.558
      vertex 7.33001 4 14.318
      vertex 5.22999 4 11.558
    endloop
  endfacet
  facet normal -0.795828 0 0.605522
    outer loop
      vertex 7.33001 4 14.318
      vertex 5.22999 3.5 11.558
      vertex 7.33001 3.5 14.318
    endloop
  endfacet
  facet normal 1 -0 0
    outer loop
      vertex 5.22999 3.5 13.402
      vertex 5.22999 4 11.558
      vertex 5.22999 4 13.402
    endloop
  endfacet
  facet normal 1 0 0
    outer loop
      vertex 5.22999 4 11.558
      vertex 5.22999 3.5 13.402
      vertex 5.22999 3.5 11.558
    endloop
  endfacet
  facet normal 0.795827 0 -0.605524
    outer loop
      vertex 4.53001 3.5 12.482
      vertex 2.42998 4 9.72198
      vertex 4.53001 4 12.482
    endloop
  endfacet
  facet normal 0.795827 0 -0.605524
    outer loop
      vertex 2.42998 4 9.72198
      vertex 4.53001 3.5 12.482
      vertex 2.42998 3.5 9.72198
    endloop
  endfacet
  facet normal -1 0 0
    outer loop
      vertex 4.53001 3.5 10.638
      vertex 4.53001 4 12.482
      vertex 4.53001 4 10.638
    endloop
  endfacet
  facet normal -1 -0 0
    outer loop
      vertex 4.53001 4 12.482
      vertex 4.53001 3.5 10.638
      vertex 4.53001 3.5 12.482
    endloop
  endfacet
  facet normal -0.795828 0 0.605522
    outer loop
      vertex 2.42998 3.5 7.87801
      vertex 4.53001 4 10.638
      vertex 2.42998 4 7.87801
    endloop
  endfacet
  facet normal -0.795828 0 0.605522
    outer loop
      vertex 4.53001 4 10.638
      vertex 2.42998 3.5 7.87801
      vertex 4.53001 3.5 10.638
    endloop
  endfacet
  facet normal 1 -0 0
    outer loop
      vertex 2.42998 3.5 9.72198
      vertex 2.42998 4 7.87801
      vertex 2.42998 4 9.72198
    endloop
  endfacet
  facet normal 1 0 0
    outer loop
      vertex 2.42998 4 7.87801
      vertex 2.42998 3.5 9.72198
      vertex 2.42998 3.5 7.87801
    endloop
  endfacet
endsolid OpenSCAD_Model
